<?xml version="1.0" encoding="UTF-8" standalone="no"?>
<!-- Created with Inkscape (http://www.inkscape.org/) -->

<svg
   xmlns:dc="http://purl.org/dc/elements/1.1/"
   xmlns:cc="http://creativecommons.org/ns#"
   xmlns:rdf="http://www.w3.org/1999/02/22-rdf-syntax-ns#"
   xmlns:svg="http://www.w3.org/2000/svg"
   xmlns="http://www.w3.org/2000/svg"
   xmlns:xlink="http://www.w3.org/1999/xlink"
   xmlns:sodipodi="http://sodipodi.sourceforge.net/DTD/sodipodi-0.dtd"
   xmlns:inkscape="http://www.inkscape.org/namespaces/inkscape"
   width="795"
   height="460"
   id="svg2"
   version="1.1"
   inkscape:version="0.48.4 r9939"
   sodipodi:docname="update.svg">
  <defs
     id="defs4">
    <marker
       inkscape:stockid="Arrow1Send"
       orient="auto"
       refY="0"
       refX="0"
       id="Arrow1Send"
       style="overflow:visible">
      <path
         id="path4041"
         d="M 0,0 5,-5 -12.5,0 5,5 0,0 z"
         style="fill-rule:evenodd;stroke:#000000;stroke-width:1pt;marker-start:none"
         transform="matrix(-0.2,0,0,-0.2,-1.2,0)"
         inkscape:connector-curvature="0" />
    </marker>
    <marker
       style="overflow:visible"
       id="Arrow1SendHTTP"
       refX="0"
       refY="0"
       orient="auto"
       inkscape:stockid="Arrow1SendHTTP">
      <path
         transform="matrix(-0.2,0,0,-0.2,-1.2,0)"
         style="fill:#4e9a06;fill-rule:evenodd;stroke:#4e9a06;stroke-width:1pt;marker-start:none"
         d="M 0,0 5,-5 -12.5,0 5,5 0,0 z"
         id="path6054"
         inkscape:connector-curvature="0" />
    </marker>
    <marker
       inkscape:stockid="Arrow1SendCLI"
       orient="auto"
       refY="0"
       refX="0"
       id="Arrow1SendCLI"
       style="overflow:visible">
      <path
         inkscape:connector-curvature="0"
         id="path6066"
         d="M 0,0 5,-5 -12.5,0 5,5 0,0 z"
         style="fill:#8f5902;fill-rule:evenodd;stroke:#8f5902;stroke-width:1pt;marker-start:none"
         transform="matrix(-0.2,0,0,-0.2,-1.2,0)" />
    </marker>
    <marker
       style="overflow:visible"
       id="Arrow1Sendgqtp"
       refX="0"
       refY="0"
       orient="auto"
       inkscape:stockid="Arrow1Sendgqtp">
      <path
         transform="matrix(-0.2,0,0,-0.2,-1.2,0)"
         style="fill:#0071bc;fill-rule:evenodd;stroke:#0071bc;stroke-width:1pt;marker-start:none"
         d="M 0,0 5,-5 -12.5,0 5,5 0,0 z"
         id="path6070"
         inkscape:connector-curvature="0" />
    </marker>
    <marker
       inkscape:stockid="Arrow1SendAPI"
       orient="auto"
       refY="0"
       refX="0"
       id="Arrow1SendAPI"
       style="overflow:visible">
      <path
         inkscape:connector-curvature="0"
         id="path6062"
         d="M 0,0 5,-5 -12.5,0 5,5 0,0 z"
         style="fill:#a40000;fill-rule:evenodd;stroke:#a40000;stroke-width:1pt;marker-start:none"
         transform="matrix(-0.2,0,0,-0.2,-1.2,0)" />
    </marker>
    <marker
       inkscape:stockid="Arrow1SendSQL"
       orient="auto"
       refY="0"
       refX="0"
       id="Arrow1SendSQL"
       style="overflow:visible">
      <path
         inkscape:connector-curvature="0"
         id="path6058"
         d="M 0,0 5,-5 -12.5,0 5,5 0,0 z"
         style="fill:#ff931e;fill-rule:evenodd;stroke:#ff931e;stroke-width:1pt;marker-start:none"
         transform="matrix(-0.2,0,0,-0.2,-1.2,0)" />
    </marker>
    <marker
       inkscape:stockid="Arrow1Lend"
       orient="auto"
       refY="0"
       refX="0"
       id="Arrow1Lend"
       style="overflow:visible">
      <path
         id="path3840"
         d="M 0,0 5,-5 -12.5,0 5,5 0,0 z"
         style="fill-rule:evenodd;stroke:#000000;stroke-width:1pt;marker-start:none"
         transform="matrix(-0.8,0,0,-0.8,-10,0)"
         inkscape:connector-curvature="0" />
    </marker>
    <filter
       id="filter3755"
       inkscape:label="Drop shadow"
       width="1.5"
       height="1.5"
       x="-0.25"
       y="-0.25"
       color-interpolation-filters="sRGB">
      <feGaussianBlur
         id="feGaussianBlur3757"
         in="SourceAlpha"
         stdDeviation="2"
         result="blur" />
      <feColorMatrix
         id="feColorMatrix3759"
         result="bluralpha"
         type="matrix"
         values="1 0 0 0 0 0 1 0 0 0 0 0 1 0 0 0 0 0 0.5 0 " />
      <feOffset
         id="feOffset3761"
         in="bluralpha"
         dx="4"
         dy="4"
         result="offsetBlur" />
      <feMerge
         id="feMerge3763">
        <feMergeNode
           id="feMergeNode3765"
           in="offsetBlur" />
        <feMergeNode
           id="feMergeNode3767"
           in="SourceGraphic" />
      </feMerge>
    </filter>
    <filter
       id="filter5131"
       inkscape:label="Drop shadow"
       width="1.5"
       height="1.5"
       x="-0.25"
       y="-0.25"
       color-interpolation-filters="sRGB">
      <feGaussianBlur
         id="feGaussianBlur5133"
         in="SourceAlpha"
         stdDeviation="2"
         result="blur" />
      <feColorMatrix
         id="feColorMatrix5135"
         result="bluralpha"
         type="matrix"
         values="1 0 0 0 0 0 1 0 0 0 0 0 1 0 0 0 0 0 0.5 0 " />
      <feOffset
         id="feOffset5137"
         in="bluralpha"
         dx="4"
         dy="4"
         result="offsetBlur" />
      <feMerge
         id="feMerge5139">
        <feMergeNode
           id="feMergeNode5141"
           in="offsetBlur" />
        <feMergeNode
           id="feMergeNode5143"
           in="SourceGraphic" />
      </feMerge>
    </filter>
    <filter
       id="filter5180"
       inkscape:label="Drop shadow"
       width="1.5"
       height="1.5"
       x="-0.25"
       y="-0.25"
       color-interpolation-filters="sRGB">
      <feGaussianBlur
         id="feGaussianBlur5182"
         in="SourceAlpha"
         stdDeviation="2"
         result="blur" />
      <feColorMatrix
         id="feColorMatrix5184"
         result="bluralpha"
         type="matrix"
         values="1 0 0 0 0 0 1 0 0 0 0 0 1 0 0 0 0 0 0.5 0 " />
      <feOffset
         id="feOffset5186"
         in="bluralpha"
         dx="4"
         dy="4"
         result="offsetBlur" />
      <feMerge
         id="feMerge5188">
        <feMergeNode
           id="feMergeNode5190"
           in="offsetBlur" />
        <feMergeNode
           id="feMergeNode5192"
           in="SourceGraphic" />
      </feMerge>
    </filter>
    <filter
       id="filter5194"
       inkscape:label="Drop shadow"
       width="1.5"
       height="1.5"
       x="-0.25"
       y="-0.25"
       color-interpolation-filters="sRGB">
      <feGaussianBlur
         id="feGaussianBlur5196"
         in="SourceAlpha"
         stdDeviation="2"
         result="blur" />
      <feColorMatrix
         id="feColorMatrix5198"
         result="bluralpha"
         type="matrix"
         values="1 0 0 0 0 0 1 0 0 0 0 0 1 0 0 0 0 0 0.5 0 " />
      <feOffset
         id="feOffset5200"
         in="bluralpha"
         dx="4"
         dy="4"
         result="offsetBlur" />
      <feMerge
         id="feMerge5202">
        <feMergeNode
           id="feMergeNode5204"
           in="offsetBlur" />
        <feMergeNode
           id="feMergeNode5206"
           in="SourceGraphic" />
      </feMerge>
    </filter>
    <filter
       id="filter5222"
       inkscape:label="Drop shadow"
       width="1.5"
       height="1.5"
       x="-0.25"
       y="-0.25"
       color-interpolation-filters="sRGB">
      <feGaussianBlur
         id="feGaussianBlur5224"
         in="SourceAlpha"
         stdDeviation="2"
         result="blur" />
      <feColorMatrix
         id="feColorMatrix5226"
         result="bluralpha"
         type="matrix"
         values="1 0 0 0 0 0 1 0 0 0 0 0 1 0 0 0 0 0 0.5 0 " />
      <feOffset
         id="feOffset5228"
         in="bluralpha"
         dx="4"
         dy="4"
         result="offsetBlur" />
      <feMerge
         id="feMerge5230">
        <feMergeNode
           id="feMergeNode5232"
           in="offsetBlur" />
        <feMergeNode
           id="feMergeNode5234"
           in="SourceGraphic" />
      </feMerge>
    </filter>
    <filter
       id="filter5236"
       inkscape:label="Drop shadow"
       width="1.5"
       height="1.5"
       x="-0.25"
       y="-0.25"
       color-interpolation-filters="sRGB">
      <feGaussianBlur
         id="feGaussianBlur5238"
         in="SourceAlpha"
         stdDeviation="2"
         result="blur" />
      <feColorMatrix
         id="feColorMatrix5240"
         result="bluralpha"
         type="matrix"
         values="1 0 0 0 0 0 1 0 0 0 0 0 1 0 0 0 0 0 0.5 0 " />
      <feOffset
         id="feOffset5242"
         in="bluralpha"
         dx="4"
         dy="4"
         result="offsetBlur" />
      <feMerge
         id="feMerge5244">
        <feMergeNode
           id="feMergeNode5246"
           in="offsetBlur" />
        <feMergeNode
           id="feMergeNode5248"
           in="SourceGraphic" />
      </feMerge>
    </filter>
    <filter
       id="filter5250"
       inkscape:label="Drop shadow"
       width="1.5"
       height="1.5"
       x="-0.25"
       y="-0.25"
       color-interpolation-filters="sRGB">
      <feGaussianBlur
         id="feGaussianBlur5252"
         in="SourceAlpha"
         stdDeviation="2"
         result="blur" />
      <feColorMatrix
         id="feColorMatrix5254"
         result="bluralpha"
         type="matrix"
         values="1 0 0 0 0 0 1 0 0 0 0 0 1 0 0 0 0 0 0.5 0 " />
      <feOffset
         id="feOffset5256"
         in="bluralpha"
         dx="4"
         dy="4"
         result="offsetBlur" />
      <feMerge
         id="feMerge5258">
        <feMergeNode
           id="feMergeNode5260"
           in="offsetBlur" />
        <feMergeNode
           id="feMergeNode5262"
           in="SourceGraphic" />
      </feMerge>
    </filter>
    <filter
       id="filter5268"
       inkscape:label="Drop shadow"
       width="1.5"
       height="1.5"
       x="-0.25"
       y="-0.25"
       color-interpolation-filters="sRGB">
      <feGaussianBlur
         id="feGaussianBlur5270"
         in="SourceAlpha"
         stdDeviation="2"
         result="blur" />
      <feColorMatrix
         id="feColorMatrix5272"
         result="bluralpha"
         type="matrix"
         values="1 0 0 0 0 0 1 0 0 0 0 0 1 0 0 0 0 0 0.5 0 " />
      <feOffset
         id="feOffset5274"
         in="bluralpha"
         dx="4"
         dy="4"
         result="offsetBlur" />
      <feMerge
         id="feMerge5276">
        <feMergeNode
           id="feMergeNode5278"
           in="offsetBlur" />
        <feMergeNode
           id="feMergeNode5280"
           in="SourceGraphic" />
      </feMerge>
    </filter>
    <clipPath
       id="clipPath3179"
       clipPathUnits="userSpaceOnUse">
      <path
         id="path3181"
         d="m 0,0 2352.62,0 0,1744 L 0,1744 0,0 z"
         inkscape:connector-curvature="0" />
    </clipPath>
    <filter
       id="filter3347"
       inkscape:label="Drop shadow"
       width="1.5"
       height="1.5"
       x="-0.25"
       y="-0.25"
       color-interpolation-filters="sRGB">
      <feGaussianBlur
         id="feGaussianBlur3349"
         in="SourceAlpha"
         stdDeviation="2"
         result="blur" />
      <feColorMatrix
         id="feColorMatrix3351"
         result="bluralpha"
         type="matrix"
         values="1 0 0 0 0 0 1 0 0 0 0 0 1 0 0 0 0 0 0.5 0 " />
      <feOffset
         id="feOffset3353"
         in="bluralpha"
         dx="4"
         dy="4"
         result="offsetBlur" />
      <feMerge
         id="feMerge3355">
        <feMergeNode
           id="feMergeNode3357"
           in="offsetBlur" />
        <feMergeNode
           id="feMergeNode3359"
           in="SourceGraphic" />
      </feMerge>
    </filter>
    <filter
       id="filter4173"
       inkscape:label="Drop shadow"
       width="1.5"
       height="1.5"
       x="-0.25"
       y="-0.25"
       color-interpolation-filters="sRGB">
      <feGaussianBlur
         id="feGaussianBlur4175"
         in="SourceAlpha"
         stdDeviation="2"
         result="blur" />
      <feColorMatrix
         id="feColorMatrix4177"
         result="bluralpha"
         type="matrix"
         values="1 0 0 0 0 0 1 0 0 0 0 0 1 0 0 0 0 0 0.5 0 " />
      <feOffset
         id="feOffset4179"
         in="bluralpha"
         dx="4"
         dy="4"
         result="offsetBlur" />
      <feMerge
         id="feMerge4181">
        <feMergeNode
           id="feMergeNode4183"
           in="offsetBlur" />
        <feMergeNode
           id="feMergeNode4185"
           in="SourceGraphic" />
      </feMerge>
    </filter>
    <filter
       id="filter4197"
       inkscape:label="Drop shadow"
       width="1.5"
       height="1.5"
       x="-0.25"
       y="-0.25"
       color-interpolation-filters="sRGB">
      <feGaussianBlur
         id="feGaussianBlur4199"
         in="SourceAlpha"
         stdDeviation="2"
         result="blur" />
      <feColorMatrix
         id="feColorMatrix4201"
         result="bluralpha"
         type="matrix"
         values="1 0 0 0 0 0 1 0 0 0 0 0 1 0 0 0 0 0 0.5 0 " />
      <feOffset
         id="feOffset4203"
         in="bluralpha"
         dx="4"
         dy="4"
         result="offsetBlur" />
      <feMerge
         id="feMerge4205">
        <feMergeNode
           id="feMergeNode4207"
           in="offsetBlur" />
        <feMergeNode
           id="feMergeNode4209"
           in="SourceGraphic" />
      </feMerge>
    </filter>
    <filter
       id="filter4276"
       inkscape:label="Drop shadow"
       width="1.5"
       height="1.5"
       x="-0.25"
       y="-0.25"
       color-interpolation-filters="sRGB">
      <feGaussianBlur
         id="feGaussianBlur4278"
         in="SourceAlpha"
         stdDeviation="2"
         result="blur" />
      <feColorMatrix
         id="feColorMatrix4280"
         result="bluralpha"
         type="matrix"
         values="1 0 0 0 0 0 1 0 0 0 0 0 1 0 0 0 0 0 0.5 0 " />
      <feOffset
         id="feOffset4282"
         in="bluralpha"
         dx="4"
         dy="4"
         result="offsetBlur" />
      <feMerge
         id="feMerge4284">
        <feMergeNode
           id="feMergeNode4286"
           in="offsetBlur" />
        <feMergeNode
           id="feMergeNode4288"
           in="SourceGraphic" />
      </feMerge>
    </filter>
    <filter
       id="filter3171"
       inkscape:label="Drop shadow"
       width="1.5"
       height="1.5"
       x="-0.25"
       y="-0.25"
       color-interpolation-filters="sRGB">
      <feGaussianBlur
         id="feGaussianBlur3173"
         in="SourceAlpha"
         stdDeviation="2"
         result="blur" />
      <feColorMatrix
         id="feColorMatrix3175"
         result="bluralpha"
         type="matrix"
         values="1 0 0 0 0 0 1 0 0 0 0 0 1 0 0 0 0 0 0.5 0 " />
      <feOffset
         id="feOffset3177"
         in="bluralpha"
         dx="4"
         dy="4"
         result="offsetBlur" />
      <feMerge
         id="feMerge3179">
        <feMergeNode
           id="feMergeNode3181"
           in="offsetBlur" />
        <feMergeNode
           id="feMergeNode3183"
           in="SourceGraphic" />
      </feMerge>
    </filter>
    <filter
       id="filter3185"
       inkscape:label="Drop shadow"
       width="1.5"
       height="1.5"
       x="-0.25"
       y="-0.25"
       color-interpolation-filters="sRGB">
      <feGaussianBlur
         id="feGaussianBlur3187"
         in="SourceAlpha"
         stdDeviation="2"
         result="blur" />
      <feColorMatrix
         id="feColorMatrix3189"
         result="bluralpha"
         type="matrix"
         values="1 0 0 0 0 0 1 0 0 0 0 0 1 0 0 0 0 0 0.5 0 " />
      <feOffset
         id="feOffset3191"
         in="bluralpha"
         dx="4"
         dy="4"
         result="offsetBlur" />
      <feMerge
         id="feMerge3193">
        <feMergeNode
           id="feMergeNode3195"
           in="offsetBlur" />
        <feMergeNode
           id="feMergeNode3197"
           in="SourceGraphic" />
      </feMerge>
    </filter>
    <linearGradient
       y2="137.38029"
       x2="223.6167"
       y1="76.3564"
       x1="223.6167"
       gradientUnits="userSpaceOnUse"
       id="SVGID_1_"
       gradientTransform="translate(-419.62671,208.8676)">
      <stop
         id="stop160"
         style="stop-color:#3FA9F5"
         offset="0" />
      <stop
         id="stop162"
         style="stop-color:#0071BC"
         offset="1" />
    </linearGradient>
    <linearGradient
       y2="505.11819"
       x2="147.7168"
       y1="437.05859"
       x1="147.7168"
       gradientUnits="userSpaceOnUse"
       id="SVGID_13_">
      <stop
         id="stop4080"
         style="stop-color:#3FA9F5"
         offset="0" />
      <stop
         id="stop4082"
         style="stop-color:#0071BC"
         offset="1" />
    </linearGradient>
    <linearGradient
       y2="137.38029"
       x2="223.6167"
       y1="76.3564"
       x1="223.6167"
       gradientTransform="matrix(3.0240925,0,0,3.0240925,-289.39052,88.167588)"
       gradientUnits="userSpaceOnUse"
       id="linearGradient2994"
       xlink:href="#SVGID_1_-0"
       inkscape:collect="always" />
    <linearGradient
       y2="137.38029"
       x2="223.6167"
       y1="76.3564"
       x1="223.6167"
       gradientUnits="userSpaceOnUse"
       id="SVGID_1_-0"
       gradientTransform="translate(-419.62671,208.8676)">
      <stop
         id="stop160-4"
         style="stop-color:#3FA9F5"
         offset="0" />
      <stop
         id="stop162-7"
         style="stop-color:#0071BC"
         offset="1" />
    </linearGradient>
    <linearGradient
       y2="228.2177"
       x2="223.6167"
       y1="166.2236"
       x1="223.6167"
       gradientUnits="userSpaceOnUse"
       id="SVGID_2_"
       gradientTransform="translate(405.03952,235.75369)">
      <stop
         id="stop3925"
         style="stop-color:#F8BB5E"
         offset="0" />
      <stop
         id="stop3927"
         style="stop-color:#FF931E"
         offset="1" />
    </linearGradient>
    <linearGradient
       y2="403.2283"
       x2="223.6167"
       y1="340.418"
       x1="223.6167"
       gradientUnits="userSpaceOnUse"
       id="SVGID_4_"
       gradientTransform="translate(279.85374,93.654148)">
      <stop
         id="stop3959"
         style="stop-color:#AE0000"
         offset="0" />
      <stop
         id="stop3961"
         style="stop-color:#740000"
         offset="1" />
    </linearGradient>
    <marker
       inkscape:stockid="Arrow1SendSQL"
       orient="auto"
       refY="0"
       refX="0"
       id="Arrow1SendSQL-1"
       style="overflow:visible">
      <path
         inkscape:connector-curvature="0"
         id="path6058-7"
         d="M 0,0 5,-5 -12.5,0 5,5 0,0 z"
         style="fill:#ff931e;fill-rule:evenodd;stroke:#ff931e;stroke-width:1pt;marker-start:none"
         transform="matrix(-0.2,0,0,-0.2,-1.2,0)" />
    </marker>
  </defs>
  <sodipodi:namedview
     id="base"
     pagecolor="#ffffff"
     bordercolor="#666666"
     borderopacity="1.0"
     inkscape:pageopacity="0.0"
     inkscape:pageshadow="2"
     inkscape:zoom="0.6746111"
     inkscape:cx="305.96419"
     inkscape:cy="268.10347"
     inkscape:document-units="px"
     inkscape:current-layer="layer1"
     showgrid="false"
     inkscape:window-width="1364"
     inkscape:window-height="708"
     inkscape:window-x="206"
     inkscape:window-y="217"
     inkscape:window-maximized="0"
     showguides="true"
     inkscape:guide-bbox="true" />
  <metadata
     id="metadata7">
    <rdf:RDF>
      <cc:Work
         rdf:about="">
        <dc:format>image/svg+xml</dc:format>
        <dc:type
           rdf:resource="http://purl.org/dc/dcmitype/StillImage" />
        <dc:title />
      </cc:Work>
    </rdf:RDF>
  </metadata>
  <g
     inkscape:label="レイヤー 1"
     inkscape:groupmode="layer"
     id="layer1"
     transform="translate(0,-592.36218)">
    <rect
       style="fill:#ffffff;fill-opacity:1;stroke:#0071bc;stroke-width:2.41384912000000007;stroke-miterlimit:4;stroke-opacity:1;stroke-dasharray:none;filter:url(#filter5131)"
       id="rect2985"
       width="666.93036"
       height="150"
       x="105.92012"
       y="879.12"
       rx="0"
       ry="0" />
    <text
       xml:space="preserve"
       style="font-size:30px;font-style:normal;font-weight:normal;line-height:125%;letter-spacing:0px;word-spacing:0px;fill:#000000;fill-opacity:1;stroke:none;font-family:Sans"
       x="-1033.2632"
       y="78.910072"
       id="text3769"
       sodipodi:linespacing="125%"
       transform="matrix(0,-1,1,0,0,0)"><tspan
         sodipodi:role="line"
         id="tspan3771"
         x="-1033.2632"
         y="78.910072">libgroonga</tspan></text>
    <rect
       style="fill:#ffffff;fill-opacity:1;stroke:#0071bc;stroke-width:2.31505251000000012;stroke-miterlimit:4;stroke-opacity:1;stroke-dasharray:none;filter:url(#filter5250)"
       id="rect3773"
       width="192.47444"
       height="49.684937"
       x="105.85844"
       y="980.26648" />
    <text
       xml:space="preserve"
       style="font-size:40px;font-style:normal;font-weight:normal;line-height:125%;letter-spacing:0px;word-spacing:0px;fill:#000000;fill-opacity:1;stroke:none;font-family:Sans"
       x="123.00951"
       y="1019.6006"
       id="text3775"
       sodipodi:linespacing="125%"><tspan
         sodipodi:role="line"
         id="tspan3777"
         x="123.00951"
         y="1019.6006">キー管理</tspan></text>
    <rect
       y="980.26648"
       x="298.85843"
       height="49.684937"
       width="197.66258"
       id="rect3779"
       style="fill:#ffffff;fill-opacity:1;stroke:#0071bc;stroke-width:2.31505251000000012;stroke-miterlimit:4;stroke-opacity:1;stroke-dasharray:none;filter:url(#filter5236)" />
    <text
       sodipodi:linespacing="125%"
       id="text3781"
       y="1019.3662"
       x="318.78293"
       style="font-size:40px;font-style:normal;font-weight:normal;line-height:125%;letter-spacing:0px;word-spacing:0px;fill:#000000;fill-opacity:1;stroke:none;font-family:Sans"
       xml:space="preserve"><tspan
         y="1019.3662"
         x="318.78293"
         id="tspan3783"
         sodipodi:role="line">転置索引</tspan></text>
    <rect
       style="fill:#ffffff;fill-opacity:1;stroke:#0071bc;stroke-width:2.31879711000000022;stroke-miterlimit:4;stroke-opacity:1;stroke-dasharray:none;filter:url(#filter5222)"
       id="rect3785"
       width="274.258"
       height="49.681152"
       x="497.86029"
       y="980.26831" />
    <text
       xml:space="preserve"
       style="font-size:40px;font-style:normal;font-weight:normal;line-height:125%;letter-spacing:0px;word-spacing:0px;fill:#000000;fill-opacity:1;stroke:none;font-family:Sans"
       x="517.05249"
       y="1020.1084"
       id="text3787"
       sodipodi:linespacing="125%"><tspan
         sodipodi:role="line"
         id="tspan3789"
         x="517.05249"
         y="1020.1084">データストア</tspan></text>
    <rect
       y="929.83545"
       x="105.70362"
       height="49.854614"
       width="666.09338"
       id="rect3791"
       style="fill:#ffffff;fill-opacity:1;stroke:#0071bc;stroke-width:2.00560594000000014;stroke-miterlimit:4;stroke-opacity:1;stroke-dasharray:none;filter:url(#filter5194)"
       ry="0" />
    <text
       xml:space="preserve"
       style="font-size:40px;font-style:normal;font-variant:normal;font-weight:500;font-stretch:normal;text-align:center;line-height:125%;letter-spacing:0px;word-spacing:0px;writing-mode:lr-tb;text-anchor:middle;fill:#000000;fill-opacity:1;stroke:none;font-family:'M+ 1p';-inkscape-font-specification:'M+ 1p Medium'"
       x="441.84299"
       y="970.39093"
       id="text3793"
       sodipodi:linespacing="125%"><tspan
         sodipodi:role="line"
         id="tspan3795"
         x="441.84299"
         y="970.39093">データベース機能</tspan></text>
    <rect
       style="fill:#ffffff;fill-opacity:1;stroke:#0071bc;stroke-width:2;stroke-miterlimit:4;stroke-opacity:1;stroke-dasharray:none;filter:url(#filter5180)"
       id="rect3797"
       width="247.9127"
       height="50"
       x="105.70129"
       y="878.80841" />
    <text
       xml:space="preserve"
       style="font-size:40px;font-style:normal;font-weight:normal;line-height:125%;letter-spacing:0px;word-spacing:0px;fill:#000000;fill-opacity:1;stroke:none;font-family:Sans"
       x="109.29884"
       y="917.9881"
       id="text3818"
       sodipodi:linespacing="125%"><tspan
         sodipodi:role="line"
         id="tspan3820"
         x="109.29884"
         y="917.9881">クエリー言語</tspan></text>
    <rect
       y="758.83252"
       x="105.70123"
       height="119"
       width="248.13103"
       id="rect3822"
       style="fill:#ffffff;fill-opacity:1;stroke:#0071bc;stroke-width:2;stroke-miterlimit:4;stroke-opacity:1;stroke-dasharray:none;filter:url(#filter3171)" />
    <text
       xml:space="preserve"
       style="font-size:40px;font-style:normal;font-variant:normal;font-weight:normal;font-stretch:normal;text-align:center;line-height:125%;letter-spacing:0px;word-spacing:0px;writing-mode:lr-tb;text-anchor:middle;fill:#000000;fill-opacity:1;stroke:none;font-family:Sans;-inkscape-font-specification:Sans"
       x="226.21686"
       y="802.98584"
       id="text3824"
       sodipodi:linespacing="125%"><tspan
         sodipodi:role="line"
         id="tspan3826"
         x="226.21686"
         y="802.98584">groonga</tspan><tspan
         sodipodi:role="line"
         x="226.21686"
         y="857.60992"
         id="tspan3828">コマンド</tspan></text>
    <rect
       y="758.83252"
       x="353.99539"
       height="169"
       width="218.29544"
       id="rect4518"
       style="fill:#ffffff;fill-opacity:1;stroke:#2e3436;stroke-width:2;stroke-miterlimit:4;stroke-opacity:1;stroke-dasharray:none;filter:url(#filter4197)" />
    <text
       sodipodi:linespacing="125%"
       id="text4520"
       y="817.77185"
       x="465.40875"
       style="font-size:48px;font-style:normal;font-variant:normal;font-weight:900;font-stretch:normal;text-align:center;line-height:125%;letter-spacing:0px;word-spacing:0px;writing-mode:lr-tb;text-anchor:middle;fill:#000000;fill-opacity:1;stroke:#000000;stroke-width:0.25;stroke-miterlimit:4;stroke-opacity:1;stroke-dasharray:none;filter:url(#filter4197);font-family:'M+ 1p';-inkscape-font-specification:'M+ 1p Heavy'"
       xml:space="preserve"><tspan
         style="font-size:48px;font-style:normal;font-variant:normal;font-weight:900;font-stretch:normal;text-align:center;line-height:125%;writing-mode:lr-tb;text-anchor:middle;stroke-width:0.25;stroke-miterlimit:4;stroke-dasharray:none;font-family:'M+ 1p';-inkscape-font-specification:'M+ 1p Heavy'"
         y="817.77185"
         x="465.40875"
         id="tspan4522"
         sodipodi:role="line"><tspan
           id="tspan4141"
           style="font-size:48px;font-style:normal;font-variant:normal;font-weight:900;font-stretch:normal;text-align:center;line-height:125%;writing-mode:lr-tb;text-anchor:middle;fill:#007a9e;fill-opacity:1;stroke:#000000;stroke-width:0.25;stroke-miterlimit:4;stroke-opacity:1;stroke-dasharray:none;font-family:'M+ 1p';-inkscape-font-specification:'M+ 1p Heavy'">My</tspan><tspan
           id="tspan4147"
           style="font-size:48px;font-style:normal;font-variant:normal;font-weight:900;font-stretch:normal;text-align:center;line-height:125%;writing-mode:lr-tb;text-anchor:middle;fill:#e99d27;fill-opacity:1;stroke:#000000;stroke-width:0.25;stroke-miterlimit:4;stroke-opacity:1;stroke-dasharray:none;font-family:'M+ 1p';-inkscape-font-specification:'M+ 1p Heavy'">SQL</tspan></tspan></text>
    <rect
       style="fill:#ffffff;fill-opacity:1;stroke:#2e3436;stroke-width:2;stroke-miterlimit:4;stroke-opacity:1;stroke-dasharray:none;filter:url(#filter4197)"
       id="rect4524"
       width="216.72318"
       height="90"
       x="353.99539"
       y="837.83252" />
    <text
       sodipodi:linespacing="125%"
       id="text4570"
       y="678.18256"
       x="49.878864"
       style="font-size:30px;font-style:normal;font-weight:normal;text-align:center;line-height:125%;letter-spacing:0px;word-spacing:0px;text-anchor:middle;fill:#ff931e;fill-opacity:1;stroke:none;font-family:Sans"
       xml:space="preserve"><tspan
         y="678.18256"
         x="49.878864"
         id="tspan4572"
         sodipodi:role="line">SQL</tspan></text>
    <g
       id="g5112"
       transform="translate(-295.25211,595.35534)"
       style="filter:url(#filter3185)">
      <rect
         y="8.3621826"
         x="401"
         height="49.646481"
         width="664.19153"
         id="rect4480"
         style="fill:#ffffff;fill-opacity:1;stroke:#2e3436;stroke-width:2.09331679;stroke-miterlimit:4;stroke-opacity:1;stroke-dasharray:none"
         ry="0" />
      <text
         sodipodi:linespacing="125%"
         id="text4482"
         y="48.811401"
         x="651.13281"
         style="font-size:40px;font-style:normal;font-weight:normal;line-height:125%;letter-spacing:0px;word-spacing:0px;fill:#000000;fill-opacity:1;stroke:none;font-family:Sans"
         xml:space="preserve"><tspan
           y="48.811401"
           x="651.13281"
           id="tspan4484"
           sodipodi:role="line">ユーザー</tspan></text>
    </g>
    <path
       inkscape:connector-curvature="0"
       id="path3205"
       d="m 459.41926,749.93491 0,-85"
       style="fill:none;stroke:#ff931e;stroke-width:5;stroke-linecap:butt;stroke-linejoin:miter;stroke-miterlimit:4;stroke-opacity:1;stroke-dasharray:none;marker-end:url(#Arrow1SendSQL)" />
    <path
       inkscape:connector-curvature="0"
       id="path3207"
       d="m 477.41926,664.93491 0,82"
       style="fill:none;stroke:#ff931e;stroke-width:5;stroke-linecap:butt;stroke-linejoin:miter;stroke-miterlimit:4;stroke-opacity:1;stroke-dasharray:none;marker-end:url(#Arrow1SendSQL)" />
    <path
       inkscape:connector-curvature="0"
       id="path6072"
       d="m 17.027588,692.84125 61.282634,0"
       style="fill:none;stroke:#ff931e;stroke-width:5;stroke-linecap:butt;stroke-linejoin:miter;stroke-miterlimit:4;stroke-opacity:1;stroke-dasharray:none;marker-end:url(#Arrow1SendSQL)"
       sodipodi:nodetypes="cc" />
    <g
       transform="matrix(0.23021966,0,0,0.23021966,-54.152056,857.41727)"
       id="layer1-9"
       inkscape:label="レイヤー 1">
      <path
         id="path164-4"
         d="m 379.72928,340.66117 c -7.06731,7.06429 -12.426,16.1547 -15.21724,26.1705 -18.37438,-0.28124 -36.80623,6.87377 -51.43075,21.5013 -24.62215,24.61914 -32.27916,69.29104 2.01708,103.58424 28.8559,28.85891 71.95223,29.29438 100.23355,1.00702 13.36951,-13.37859 21.88233,-31.77111 22.0668,-51.22813 9.49565,-2.52511 18.52257,-7.58139 26.21888,-15.26864 21.03559,-21.04466 27.47691,-57.2128 -0.94049,-85.63625 -23.68772,-23.67865 -59.35084,-23.73005 -82.94783,-0.13004 z m 77.4833,61.75802 c -4.03716,4.04623 -9.20837,7.028 -14.91483,8.66101 -9.15393,2.62188 -14.0832,2.34972 -17.23128,7.60558 -3.14808,5.24681 -2.80031,5.86675 -2.66121,15.70714 0.16935,11.15588 -4.03111,22.72001 -14.55495,33.2499 -16.08818,16.08212 -45.78476,19.6687 -67.63685,-2.18037 -17.21617,-17.21918 -25.29654,-46.20209 -2.35275,-69.14587 8.51585,-8.50678 20.76342,-13.53887 33.64001,-13.31207 8.95434,0.16028 9.99765,0.48689 15.76156,-2.12895 5.773,-2.62794 3.27207,-8.46443 6.71955,-18.7645 1.68139,-5.01999 4.67221,-9.96136 9.35049,-14.6487 12.4774,-12.47741 35.44539,-15.33821 52.27144,1.48483 13.70821,13.71425 19.52052,35.5603 1.60882,53.472 z"
         inkscape:connector-curvature="0"
         style="fill:url(#linearGradient2994)" />
    </g>
    <g
       transform="matrix(0.66784503,0,0,0.66784503,34.06297,590.66327)"
       id="layer1-3"
       inkscape:label="レイヤー 1">
      <g
         id="g4460">
        <path
           inkscape:connector-curvature="0"
           d="m 595.93852,420.61969 c -1.336,-0.291 -2.281,-0.448 -3.442,-0.448 -2.847,0 -5.33,0.831 -7.391,2.466 -0.091,0.062 -0.192,0.14 -0.303,0.247 -0.231,0.196 -0.452,0.406 -0.668,0.621 -1.478,1.313 -2.76,1.951 -2.76,-1.236 v -0.666 c 0,-0.405 -0.327,-0.732 -0.732,-0.732 h -2.101 c -0.198,0 -0.388,0.08 -0.525,0.223 -0.139,0.142 -0.212,0.334 -0.206,0.532 0.105,3.332 0.215,6.777 0.215,9.621 v 18.749 c 0,0.405 0.328,0.732 0.732,0.732 h 2.209 c 0.404,0 0.732,-0.327 0.732,-0.732 v -9.913 c 0,-1.37 0.107,-3.805 0.309,-4.813 1.569,-7.797 4.982,-11.588 10.435,-11.588 0.979,0 1.881,0.164 2.874,0.362 0.048,0.01 0.096,0.015 0.144,0.015 0.148,0 0.294,-0.045 0.417,-0.131 0.163,-0.112 0.273,-0.288 0.306,-0.484 l 0.323,-1.994 c 0.062,-0.383 -0.187,-0.749 -0.568,-0.831 z"
           id="path3916" />
        <path
           inkscape:connector-curvature="0"
           d="m 684.98552,422.21169 c -2.512,-1.776 -5.292,-2.04 -6.726,-2.04 -2.91,0 -5.648,0.912 -7.822,2.495 -0.005,0.003 -0.01,0.004 -0.014,0.008 -1.004,0.649 -2.627,0.91 -2.618,-0.625 l 0,-0.022 c 0.002,-0.105 -0.003,-0.197 -0.013,-0.276 l -0.008,-0.182 c -0.019,-0.391 -0.34,-0.698 -0.731,-0.698 h -2.102 c -0.203,0 -0.396,0.083 -0.535,0.231 -0.138,0.148 -0.209,0.347 -0.195,0.55 0.152,2.28 0.214,4.171 0.214,6.524 v 21.82 c 0,0.405 0.328,0.732 0.731,0.732 h 2.209 c 0.404,0 0.732,-0.327 0.732,-0.732 v -17.51 c 0,-0.813 0.253,-1.762 0.49,-2.378 0.004,-0.009 0.006,-0.016 0.01,-0.024 1.043,-3.043 4.224,-6.121 8.417,-6.475 3.236,0.002 8.327,2.358 9.024,8.226 0.016,0.15 0.03,0.299 0.042,0.443 0.004,0.049 0.008,0.099 0.011,0.149 0.005,0.07 0.009,0.14 0.014,0.208 0.009,0.192 0.015,0.386 0.015,0.583 0,0.335 0.006,0.637 0.017,0.91 v 15.868 c 0,0.405 0.328,0.732 0.733,0.732 h 2.208 c 0.404,0 0.732,-0.327 0.732,-0.732 v -16.271 c 0,-5.372 -1.627,-9.246 -4.835,-11.514 z"
           id="path3918" />
        <path
           inkscape:connector-curvature="0"
           d="m 761.20952,447.55369 c -0.133,-0.113 -0.301,-0.173 -0.473,-0.173 -0.04,0 -0.08,0.003 -0.12,0.01 -0.587,0.098 -0.965,0.098 -1.442,0.098 -1.147,0 -2.177,-0.336 -2.177,-4.387 v -9.913 c 0,-2.343 -0.179,-5.368 -1.583,-7.971 -1.822,-3.384 -5.181,-5.1 -9.978,-5.1 -2.475,0 -6.217,0.516 -9.99,2.975 -0.315,0.205 -0.422,0.615 -0.25,0.949 l 0.861,1.669 c 0.098,0.189 0.272,0.326 0.478,0.376 0.058,0.015 0.116,0.021 0.173,0.021 0.151,0 0.299,-0.046 0.424,-0.135 2.314,-1.639 5.186,-2.506 8.305,-2.506 3.995,0 6.004,1.854 7,3.94 v 0 c 1.004,2.22 -0.561,4.403 -2.285,4.584 -0.085,0.004 -0.17,0.008 -0.254,0.013 -0.014,-0.001 -0.028,10e-4 -0.042,0 -0.055,-0.001 -0.101,10e-4 -0.143,0.009 -10.978,0.626 -16.538,4.313 -16.538,10.98 0,2.028 0.803,4.057 2.202,5.568 1.233,1.334 3.56,2.922 7.635,2.922 3.471,0 6.271,-1.111 8.325,-2.472 0.061,-0.032 0.13,-0.077 0.211,-0.141 0.023,-0.018 0.042,-0.031 0.064,-0.048 0.128,-0.089 0.256,-0.177 0.378,-0.268 1.275,-0.824 1.969,-0.351 2.623,0.503 0.002,0.003 0.006,0.005 0.008,0.008 0.84,1.141 2.161,1.717 3.962,1.717 0.846,0 1.591,-0.093 2.344,-0.293 0.32,-0.085 0.543,-0.375 0.543,-0.708 v -1.669 c -0.002,-0.214 -0.097,-0.419 -0.261,-0.558 z m -18.252,0.527 c -3.042,0 -6.111,-1.722 -6.111,-5.572 0,-4.862 5.936,-6.58 12.167,-7.043 2.32,-0.043 4.097,2.161 4.311,4.575 v 0.989 c -0.062,0.647 -0.246,1.289 -0.568,1.888 -0.162,0.265 -0.356,0.557 -0.589,0.865 -0.04,0.048 -0.075,0.093 -0.103,0.133 -1.442,1.847 -4.223,4.165 -9.107,4.165 z"
           id="path3920" />
        <path
           inkscape:connector-curvature="0"
           d="m 725.07752,420.87269 h -2.047 c -0.393,0 -0.716,0.31 -0.731,0.703 -0.066,1.619 -0.892,1.836 -2.703,0.765 -0.009,-0.005 -0.018,-0.013 -0.027,-0.02 -0.178,-0.118 -0.362,-0.23 -0.546,-0.337 -0.011,-0.008 -0.02,-0.014 -0.031,-0.021 -0.087,-0.057 -0.168,-0.103 -0.244,-0.139 -1.982,-1.096 -4.307,-1.65 -6.924,-1.65 -3.739,0 -7.429,1.548 -10.122,4.249 -2.082,2.087 -4.564,5.827 -4.564,11.784 0,3.818 1.346,7.413 3.792,10.121 2.595,2.875 6.234,4.458 10.248,4.458 3.111,0 5.514,-0.819 7.335,-1.896 0.004,-0.002 0.007,-0.003 0.012,-0.005 1.954,-0.875 3.603,-2.184 3.135,2.233 -0.875,5.677 -4.519,8.764 -10.482,8.764 -4.175,0 -7.31,-1.405 -9.204,-2.584 -0.118,-0.073 -0.251,-0.109 -0.387,-0.109 -0.06,0 -0.122,0.006 -0.182,0.023 -0.193,0.049 -0.358,0.176 -0.456,0.35 l -0.97,1.724 c -0.189,0.336 -0.085,0.76 0.237,0.972 2.853,1.862 6.91,2.974 10.854,2.974 2.689,0 9.293,-0.625 12.493,-6.412 1.385,-2.481 2.031,-5.968 2.031,-10.969 v -17.456 c 0,-2.474 0.07,-4.678 0.214,-6.738 0.014,-0.203 -0.057,-0.401 -0.195,-0.55 -0.139,-0.151 -0.332,-0.234 -0.536,-0.234 z m -16.892,26.027 c -0.605,-0.24 -7.609,-3.216 -7.013,-11.812 0.551,-7.939 5.716,-10.454 6.517,-10.798 1.278,-0.5 2.701,-0.768 4.242,-0.768 1.665,0 3.113,0.327 4.354,0.873 6.845,3.871 7.696,16.452 0.884,21.467 -1.592,1 -3.436,1.572 -5.345,1.572 -1.343,0 -2.553,-0.192 -3.639,-0.534 z"
           id="path3922" />
        <path
           style="fill:url(#SVGID_2_)"
           inkscape:connector-curvature="0"
           d="m 626.30252,406.64669 c -2.337,2.337 -4.109,5.343 -5.032,8.655 -6.076,-0.094 -12.171,2.272 -17.007,7.11 -8.142,8.141 -10.674,22.912 0.667,34.253 9.542,9.543 23.793,9.687 33.145,0.334 4.421,-4.424 7.236,-10.507 7.297,-16.941 3.14,-0.836 6.125,-2.507 8.67,-5.049 6.956,-6.959 9.086,-18.919 -0.311,-28.318 -7.833,-7.831 -19.626,-7.848 -27.429,-0.044 z m 25.622,20.423 c -1.335,1.336 -3.045,2.324 -4.932,2.862 -3.027,0.868 -4.657,0.778 -5.698,2.515 -1.041,1.736 -0.926,1.941 -0.88,5.194 0.056,3.689 -1.333,7.514 -4.813,10.996 -5.32,5.318 -15.14,6.504 -22.366,-0.722 -5.693,-5.695 -8.365,-15.278 -0.778,-22.865 2.816,-2.813 6.866,-4.477 11.124,-4.401 2.961,0.051 3.306,0.16 5.212,-0.704 1.909,-0.87 1.082,-2.8 2.222,-6.205 0.556,-1.66 1.545,-3.295 3.092,-4.844 4.126,-4.126 11.721,-5.072 17.285,0.49 4.533,4.535 6.455,11.76 0.532,17.684 z"
           id="path3929" />
        <path
           inkscape:connector-curvature="0"
           d="m 557.08552,420.17169 c -3.604,0 -5.78,1.055 -7.803,2.675 0,10e-4 -10e-4,10e-4 -10e-4,0.002 -2.14,1.482 -3.267,1.373 -5.033,0.007 -0.008,-0.007 -0.015,-0.009 -0.023,-0.015 -1.786,-1.704 -4.111,-2.669 -6.696,-2.669 -2.797,0 -5.133,0.737 -7.113,2.275 -0.042,0.029 -0.085,0.062 -0.129,0.102 -0.878,0.785 -2.285,1.01 -2.444,-0.238 l -0.015,-0.316 c 0,-0.087 -0.002,-0.167 -0.011,-0.234 l -0.009,-0.19 c -0.019,-0.391 -0.341,-0.697 -0.732,-0.697 h -2.1 c -0.204,0 -0.397,0.083 -0.536,0.232 -0.139,0.149 -0.209,0.347 -0.195,0.55 0.148,2.118 0.214,4.13 0.214,6.523 v 21.82 c 0,0.405 0.328,0.732 0.732,0.732 h 2.209 c 0.404,0 0.732,-0.327 0.732,-0.732 v -17.457 c 0,-1.086 0.264,-1.975 0.486,-2.529 1.183,-3.106 4.304,-6.436 8.371,-6.436 4.432,0 7.296,3.476 7.296,8.857 v 17.564 c 0,0.405 0.328,0.732 0.732,0.732 h 2.21 c 0.404,0 0.732,-0.327 0.732,-0.732 v -18.317 c 0,-1.093 0.288,-1.956 0.54,-2.585 1.117,-2.651 4.065,-5.519 7.887,-5.519 4.983,0 7.727,3.681 7.727,10.366 v 16.055 c 0,0.405 0.328,0.732 0.732,0.732 h 2.209 c 0.403,0 0.731,-0.327 0.731,-0.732 v -16.001 c 0,-12.828 -8.189,-13.825 -10.7,-13.825 z"
           id="path3965" />
      </g>
    </g>
    <text
       sodipodi:linespacing="125%"
       id="text4570-8"
       y="698.2038"
       x="384.72833"
       style="font-size:30px;font-style:normal;font-weight:normal;text-align:center;line-height:125%;letter-spacing:0px;word-spacing:0px;text-anchor:middle;fill:#ff931e;fill-opacity:1;stroke:none;font-family:Sans"
       xml:space="preserve"
       inkscape:transform-center-x="8.8940132"><tspan
         y="698.2038"
         x="384.72833"
         id="tspan4572-2"
         sodipodi:role="line"
         style="font-size:24px;fill:#000000">INSERT</tspan><tspan
         y="728.2038"
         x="384.72833"
         sodipodi:role="line"
         style="font-size:24px;fill:#000000"
         id="tspan3166">UPDATE</tspan></text>
  </g>
</svg>
