<?xml version="1.0" encoding="UTF-8" standalone="no"?>
<!-- Created with Inkscape (http://www.inkscape.org/) -->

<svg
   xmlns:dc="http://purl.org/dc/elements/1.1/"
   xmlns:cc="http://creativecommons.org/ns#"
   xmlns:rdf="http://www.w3.org/1999/02/22-rdf-syntax-ns#"
   xmlns:svg="http://www.w3.org/2000/svg"
   xmlns="http://www.w3.org/2000/svg"
   xmlns:xlink="http://www.w3.org/1999/xlink"
   xmlns:sodipodi="http://sodipodi.sourceforge.net/DTD/sodipodi-0.dtd"
   xmlns:inkscape="http://www.inkscape.org/namespaces/inkscape"
   width="496.30243"
   height="156.95294"
   id="svg7310"
   version="1.1"
   inkscape:version="0.48.4 r9939"
   sodipodi:docname="logos.svg">
  <defs
     id="defs7312">
    <linearGradient
       y2="137.38029"
       x2="223.6167"
       y1="76.3564"
       x1="223.6167"
       gradientTransform="translate(-419.62671,208.8676)"
       gradientUnits="userSpaceOnUse"
       id="linearGradient3693"
       xlink:href="#SVGID_1_"
       inkscape:collect="always" />
    <linearGradient
       y2="137.38029"
       x2="223.6167"
       y1="76.3564"
       x1="223.6167"
       gradientUnits="userSpaceOnUse"
       id="SVGID_1_"
       gradientTransform="translate(-419.62671,208.8676)">
      <stop
         id="stop160"
         style="stop-color:#3FA9F5"
         offset="0" />
      <stop
         id="stop162"
         style="stop-color:#0071BC"
         offset="1" />
    </linearGradient>
    <linearGradient
       y2="228.2177"
       x2="223.6167"
       y1="166.2236"
       x1="223.6167"
       gradientUnits="userSpaceOnUse"
       id="SVGID_2_"
       gradientTransform="translate(405.03952,235.75369)">
      <stop
         id="stop3925"
         style="stop-color:#F8BB5E"
         offset="0" />
      <stop
         id="stop3927"
         style="stop-color:#FF931E"
         offset="1" />
    </linearGradient>
    <linearGradient
       y2="403.2283"
       x2="223.6167"
       y1="340.418"
       x1="223.6167"
       gradientTransform="translate(279.85374,93.654148)"
       gradientUnits="userSpaceOnUse"
       id="linearGradient4655"
       xlink:href="#SVGID_4_"
       inkscape:collect="always" />
    <linearGradient
       y2="403.2283"
       x2="223.6167"
       y1="340.418"
       x1="223.6167"
       gradientUnits="userSpaceOnUse"
       id="SVGID_4_"
       gradientTransform="translate(279.85374,93.654148)">
      <stop
         id="stop3959"
         style="stop-color:#AE0000"
         offset="0" />
      <stop
         id="stop3961"
         style="stop-color:#740000"
         offset="1" />
    </linearGradient>
  </defs>
  <sodipodi:namedview
     id="base"
     pagecolor="#ffffff"
     bordercolor="#666666"
     borderopacity="1.0"
     inkscape:pageopacity="0.0"
     inkscape:pageshadow="2"
     inkscape:zoom="0.9899495"
     inkscape:cx="300.96925"
     inkscape:cy="78.155654"
     inkscape:document-units="px"
     inkscape:current-layer="layer1"
     showgrid="false"
     fit-margin-top="10"
     fit-margin-left="10"
     fit-margin-right="10"
     fit-margin-bottom="10"
     inkscape:window-width="1171"
     inkscape:window-height="457"
     inkscape:window-x="2397"
     inkscape:window-y="202"
     inkscape:window-maximized="0" />
  <metadata
     id="metadata7315">
    <rdf:RDF>
      <cc:Work
         rdf:about="">
        <dc:format>image/svg+xml</dc:format>
        <dc:type
           rdf:resource="http://purl.org/dc/dcmitype/StillImage" />
        <dc:title />
      </cc:Work>
    </rdf:RDF>
  </metadata>
  <g
     inkscape:label="レイヤー 1"
     inkscape:groupmode="layer"
     id="layer1"
     transform="translate(-38.25757,-517.8511)">
    <g
       transform="translate(-186.36672,204.18842)"
       id="layer1-7"
       inkscape:label="レイヤー 1">
      <g
         transform="translate(520,37.142857)"
         id="g3685">
        <path
           inkscape:connector-curvature="0"
           d="m -228.72771,306.3346 c -1.336,-0.29 -2.281,-0.448 -3.442,-0.448 -2.847,0 -5.33,0.831 -7.391,2.468 -0.091,0.06 -0.192,0.14 -0.303,0.245 -0.231,0.197 -0.452,0.406 -0.668,0.621 -1.478,1.314 -2.76,1.952 -2.76,-1.235 v -0.666 c 0,-0.404 -0.327,-0.732 -0.732,-0.732 h -2.101 c -0.198,0 -0.388,0.081 -0.525,0.223 -0.139,0.143 -0.212,0.335 -0.206,0.532 0.105,3.333 0.215,6.778 0.215,9.621 v 18.75 c 0,0.404 0.328,0.731 0.732,0.731 h 2.209 c 0.404,0 0.732,-0.328 0.732,-0.731 v -9.914 c 0,-1.37 0.107,-3.805 0.309,-4.813 1.569,-7.797 4.982,-11.588 10.435,-11.588 0.979,0 1.881,0.165 2.874,0.363 0.048,0.011 0.096,0.015 0.144,0.015 0.148,0 0.294,-0.045 0.417,-0.131 0.163,-0.113 0.273,-0.288 0.306,-0.484 l 0.323,-1.994 c 0.062,-0.384 -0.187,-0.752 -0.568,-0.833 z"
           id="path149" />
        <path
           inkscape:connector-curvature="0"
           d="m -139.68071,307.9266 c -2.512,-1.774 -5.292,-2.04 -6.726,-2.04 -2.91,0 -5.648,0.912 -7.822,2.495 -0.005,0.004 -0.01,0.005 -0.014,0.009 -1.004,0.648 -2.627,0.909 -2.618,-0.625 l 0,-0.021 c 0.002,-0.107 -0.003,-0.199 -0.013,-0.277 l -0.008,-0.182 c -0.019,-0.391 -0.34,-0.698 -0.731,-0.698 h -2.102 c -0.203,0 -0.396,0.084 -0.535,0.232 -0.138,0.148 -0.209,0.347 -0.195,0.549 0.152,2.28 0.214,4.171 0.214,6.524 v 21.821 c 0,0.404 0.328,0.731 0.731,0.731 h 2.209 c 0.404,0 0.732,-0.328 0.732,-0.731 v -17.511 c 0,-0.813 0.253,-1.761 0.49,-2.377 0.004,-0.008 0.006,-0.018 0.01,-0.026 1.043,-3.042 4.224,-6.12 8.417,-6.475 3.236,0.002 8.327,2.358 9.024,8.226 0.016,0.15 0.03,0.299 0.042,0.444 0.004,0.049 0.008,0.099 0.011,0.149 0.005,0.07 0.009,0.139 0.014,0.209 0.009,0.19 0.015,0.384 0.015,0.582 0,0.335 0.006,0.638 0.017,0.911 v 15.869 c 0,0.404 0.328,0.731 0.733,0.731 h 2.208 c 0.404,0 0.732,-0.328 0.732,-0.731 v -16.272 c 0,-5.375 -1.627,-9.248 -4.835,-11.516 z"
           id="path151" />
        <path
           inkscape:connector-curvature="0"
           d="m -63.456714,333.2686 c -0.133,-0.113 -0.301,-0.174 -0.473,-0.174 -0.04,0 -0.08,0.003 -0.12,0.01 -0.587,0.098 -0.965,0.098 -1.442,0.098 -1.147,0 -2.177,-0.335 -2.177,-4.387 v -9.913 c 0,-2.343 -0.179,-5.368 -1.583,-7.972 -1.822,-3.382 -5.181,-5.098 -9.978,-5.098 -2.475,0 -6.217,0.516 -9.99,2.974 -0.315,0.205 -0.422,0.615 -0.25,0.949 l 0.861,1.67 c 0.098,0.189 0.272,0.326 0.478,0.375 0.058,0.014 0.116,0.021 0.173,0.021 0.151,0 0.299,-0.047 0.424,-0.135 2.314,-1.639 5.186,-2.504 8.305,-2.504 3.995,0 6.004,1.854 7,3.939 l 0,0 c 1.004,2.221 -0.561,4.404 -2.285,4.584 -0.085,0.005 -0.17,0.008 -0.254,0.013 -0.014,0 -0.028,0.001 -0.042,0 -0.055,-10e-4 -0.101,0.003 -0.143,0.009 -10.978,0.626 -16.538,4.313 -16.538,10.98 0,2.027 0.803,4.057 2.202,5.569 1.233,1.333 3.56,2.921 7.635,2.921 3.471,0 6.271,-1.112 8.325,-2.472 0.061,-0.031 0.13,-0.076 0.211,-0.141 0.023,-0.017 0.042,-0.031 0.064,-0.048 0.128,-0.088 0.256,-0.177 0.378,-0.268 1.275,-0.825 1.969,-0.351 2.623,0.504 0.002,0.002 0.006,0.005 0.008,0.007 0.84,1.14 2.161,1.718 3.962,1.718 0.846,0 1.591,-0.094 2.344,-0.294 0.32,-0.085 0.543,-0.375 0.543,-0.707 v -1.67 c -0.002,-0.214 -0.097,-0.419 -0.261,-0.558 z m -18.252,0.527 c -3.042,0 -6.111,-1.723 -6.111,-5.572 0,-4.863 5.936,-6.58 12.167,-7.043 2.32,-0.043 4.097,2.162 4.311,4.575 v 0.989 c -0.062,0.647 -0.246,1.289 -0.568,1.888 -0.162,0.263 -0.356,0.556 -0.589,0.864 -0.04,0.047 -0.075,0.093 -0.103,0.134 -1.442,1.848 -4.223,4.165 -9.107,4.165 z"
           id="path153" />
        <path
           inkscape:connector-curvature="0"
           d="m -257.43671,306.5866 h -2.047 c -0.392,0 -0.715,0.311 -0.731,0.703 -0.065,1.618 -0.892,1.836 -2.704,0.766 -0.01,-0.006 -0.018,-0.014 -0.026,-0.019 -0.178,-0.119 -0.361,-0.231 -0.545,-0.339 -0.011,-0.007 -0.021,-0.012 -0.032,-0.02 -0.088,-0.059 -0.169,-0.104 -0.245,-0.14 -1.982,-1.096 -4.306,-1.65 -6.923,-1.65 -3.739,0 -7.428,1.548 -10.122,4.25 -2.083,2.087 -4.564,5.826 -4.564,11.784 0,3.818 1.347,7.413 3.792,10.122 2.594,2.875 6.234,4.458 10.249,4.458 3.11,0 5.514,-0.819 7.334,-1.897 0.004,-0.002 0.008,-0.003 0.012,-0.005 1.953,-0.873 3.601,-2.182 3.135,2.232 -0.875,5.678 -4.519,8.765 -10.482,8.765 -4.175,0 -7.31,-1.404 -9.204,-2.583 -0.117,-0.072 -0.251,-0.11 -0.387,-0.11 -0.061,0 -0.122,0.008 -0.182,0.023 -0.193,0.049 -0.358,0.176 -0.456,0.35 l -0.969,1.725 c -0.189,0.336 -0.085,0.761 0.237,0.972 2.852,1.863 6.909,2.975 10.853,2.975 2.691,0 9.293,-0.625 12.494,-6.412 1.384,-2.481 2.03,-5.968 2.03,-10.968 v -17.457 c 0,-2.474 0.07,-4.679 0.214,-6.738 0.014,-0.202 -0.057,-0.402 -0.195,-0.549 -0.139,-0.153 -0.333,-0.238 -0.536,-0.238 z m -16.892,26.028 c -0.605,-0.24 -7.609,-3.216 -7.013,-11.811 0.551,-7.946 5.723,-10.459 6.518,-10.798 1.278,-0.5 2.7,-0.769 4.241,-0.769 1.664,0 3.112,0.327 4.354,0.873 6.846,3.871 7.696,16.453 0.885,21.467 -1.592,0.999 -3.437,1.573 -5.346,1.573 -1.342,0 -2.552,-0.194 -3.639,-0.535 z"
           id="path155" />
        <path
           inkscape:connector-curvature="0"
           d="m -99.588714,306.5866 h -2.046996 c -0.393,0 -0.716,0.311 -0.731,0.703 -0.066,1.618 -0.892,1.836 -2.703,0.766 -0.009,-0.005 -0.018,-0.014 -0.027,-0.019 -0.178,-0.119 -0.362,-0.231 -0.546,-0.339 -0.011,-0.008 -0.02,-0.014 -0.031,-0.02 -0.087,-0.059 -0.168,-0.104 -0.244,-0.139 -1.982,-1.097 -4.307,-1.651 -6.924,-1.651 -3.739,0 -7.429,1.548 -10.122,4.25 -2.082,2.087 -4.564,5.826 -4.564,11.784 0,3.818 1.346,7.413 3.792,10.122 2.595,2.875 6.234,4.458 10.248,4.458 3.111,0 5.514,-0.819 7.335,-1.897 0.004,-0.002 0.007,-0.003 0.012,-0.005 1.954,-0.874 3.603,-2.183 3.135,2.233 -0.875,5.678 -4.519,8.764 -10.482,8.764 -4.175,0 -7.31,-1.404 -9.204,-2.583 -0.118,-0.072 -0.251,-0.11 -0.387,-0.11 -0.06,0 -0.122,0.008 -0.182,0.023 -0.193,0.049 -0.358,0.176 -0.456,0.35 l -0.97,1.725 c -0.189,0.336 -0.085,0.761 0.237,0.972 2.853,1.863 6.91,2.975 10.854,2.975 2.689,0 9.293,-0.625 12.493,-6.412 1.384996,-2.481 2.030996,-5.968 2.030996,-10.968 v -17.457 c 0,-2.474 0.07,-4.679 0.214,-6.738 0.014,-0.202 -0.057,-0.402 -0.195,-0.549 -0.139,-0.153 -0.332,-0.238 -0.536,-0.238 z m -16.891996,26.028 c -0.605,-0.24 -7.609,-3.216 -7.013,-11.811 0.551,-7.94 5.716,-10.455 6.517,-10.798 1.278,-0.5 2.701,-0.769 4.242,-0.769 1.665,0 3.113,0.327 4.354,0.873 6.845,3.871 7.696,16.453 0.884,21.467 -1.592,1 -3.436,1.573 -5.345,1.573 -1.343,0 -2.553,-0.194 -3.639,-0.535 z"
           id="path157" />
        <path
           style="fill:url(#linearGradient3693)"
           inkscape:connector-curvature="0"
           d="m -198.36371,292.3616 c -2.337,2.336 -4.109,5.342 -5.032,8.654 -6.076,-0.093 -12.171,2.273 -17.007,7.11 -8.142,8.141 -10.674,22.913 0.667,34.253 9.542,9.543 23.793,9.687 33.145,0.333 4.421,-4.424 7.236,-10.506 7.297,-16.94 3.14,-0.835 6.125,-2.507 8.67,-5.049 6.956,-6.959 9.086,-18.919 -0.311,-28.318 -7.833,-7.83 -19.626,-7.847 -27.429,-0.043 z m 25.622,20.422 c -1.335,1.338 -3.045,2.324 -4.932,2.864 -3.027,0.867 -4.657,0.777 -5.698,2.515 -1.041,1.735 -0.926,1.94 -0.88,5.194 0.056,3.689 -1.333,7.513 -4.813,10.995 -5.32,5.318 -15.14,6.504 -22.366,-0.721 -5.693,-5.694 -8.365,-15.278 -0.778,-22.865 2.816,-2.813 6.866,-4.477 11.124,-4.402 2.961,0.053 3.306,0.161 5.212,-0.704 1.909,-0.869 1.082,-2.799 2.222,-6.205 0.556,-1.66 1.545,-3.294 3.092,-4.844 4.126,-4.126 11.721,-5.072 17.285,0.491 4.533,4.535 6.455,11.759 0.532,17.682 z"
           id="path164" />
      </g>
    </g>
    <g
       transform="translate(-236.91052,127.04556)"
       id="layer1-8"
       inkscape:label="レイヤー 1">
      <g
         id="g4460">
        <path
           inkscape:connector-curvature="0"
           d="m 595.93852,420.61969 c -1.336,-0.291 -2.281,-0.448 -3.442,-0.448 -2.847,0 -5.33,0.831 -7.391,2.466 -0.091,0.062 -0.192,0.14 -0.303,0.247 -0.231,0.196 -0.452,0.406 -0.668,0.621 -1.478,1.313 -2.76,1.951 -2.76,-1.236 v -0.666 c 0,-0.405 -0.327,-0.732 -0.732,-0.732 h -2.101 c -0.198,0 -0.388,0.08 -0.525,0.223 -0.139,0.142 -0.212,0.334 -0.206,0.532 0.105,3.332 0.215,6.777 0.215,9.621 v 18.749 c 0,0.405 0.328,0.732 0.732,0.732 h 2.209 c 0.404,0 0.732,-0.327 0.732,-0.732 v -9.913 c 0,-1.37 0.107,-3.805 0.309,-4.813 1.569,-7.797 4.982,-11.588 10.435,-11.588 0.979,0 1.881,0.164 2.874,0.362 0.048,0.01 0.096,0.015 0.144,0.015 0.148,0 0.294,-0.045 0.417,-0.131 0.163,-0.112 0.273,-0.288 0.306,-0.484 l 0.323,-1.994 c 0.062,-0.383 -0.187,-0.749 -0.568,-0.831 z"
           id="path3916" />
        <path
           inkscape:connector-curvature="0"
           d="m 684.98552,422.21169 c -2.512,-1.776 -5.292,-2.04 -6.726,-2.04 -2.91,0 -5.648,0.912 -7.822,2.495 -0.005,0.003 -0.01,0.004 -0.014,0.008 -1.004,0.649 -2.627,0.91 -2.618,-0.625 l 0,-0.022 c 0.002,-0.105 -0.003,-0.197 -0.013,-0.276 l -0.008,-0.182 c -0.019,-0.391 -0.34,-0.698 -0.731,-0.698 h -2.102 c -0.203,0 -0.396,0.083 -0.535,0.231 -0.138,0.148 -0.209,0.347 -0.195,0.55 0.152,2.28 0.214,4.171 0.214,6.524 v 21.82 c 0,0.405 0.328,0.732 0.731,0.732 h 2.209 c 0.404,0 0.732,-0.327 0.732,-0.732 v -17.51 c 0,-0.813 0.253,-1.762 0.49,-2.378 0.004,-0.009 0.006,-0.016 0.01,-0.024 1.043,-3.043 4.224,-6.121 8.417,-6.475 3.236,0.002 8.327,2.358 9.024,8.226 0.016,0.15 0.03,0.299 0.042,0.443 0.004,0.049 0.008,0.099 0.011,0.149 0.005,0.07 0.009,0.14 0.014,0.208 0.009,0.192 0.015,0.386 0.015,0.583 0,0.335 0.006,0.637 0.017,0.91 v 15.868 c 0,0.405 0.328,0.732 0.733,0.732 h 2.208 c 0.404,0 0.732,-0.327 0.732,-0.732 v -16.271 c 0,-5.372 -1.627,-9.246 -4.835,-11.514 z"
           id="path3918" />
        <path
           inkscape:connector-curvature="0"
           d="m 761.20952,447.55369 c -0.133,-0.113 -0.301,-0.173 -0.473,-0.173 -0.04,0 -0.08,0.003 -0.12,0.01 -0.587,0.098 -0.965,0.098 -1.442,0.098 -1.147,0 -2.177,-0.336 -2.177,-4.387 v -9.913 c 0,-2.343 -0.179,-5.368 -1.583,-7.971 -1.822,-3.384 -5.181,-5.1 -9.978,-5.1 -2.475,0 -6.217,0.516 -9.99,2.975 -0.315,0.205 -0.422,0.615 -0.25,0.949 l 0.861,1.669 c 0.098,0.189 0.272,0.326 0.478,0.376 0.058,0.015 0.116,0.021 0.173,0.021 0.151,0 0.299,-0.046 0.424,-0.135 2.314,-1.639 5.186,-2.506 8.305,-2.506 3.995,0 6.004,1.854 7,3.94 v 0 c 1.004,2.22 -0.561,4.403 -2.285,4.584 -0.085,0.004 -0.17,0.008 -0.254,0.013 -0.014,-0.001 -0.028,10e-4 -0.042,0 -0.055,-0.001 -0.101,10e-4 -0.143,0.009 -10.978,0.626 -16.538,4.313 -16.538,10.98 0,2.028 0.803,4.057 2.202,5.568 1.233,1.334 3.56,2.922 7.635,2.922 3.471,0 6.271,-1.111 8.325,-2.472 0.061,-0.032 0.13,-0.077 0.211,-0.141 0.023,-0.018 0.042,-0.031 0.064,-0.048 0.128,-0.089 0.256,-0.177 0.378,-0.268 1.275,-0.824 1.969,-0.351 2.623,0.503 0.002,0.003 0.006,0.005 0.008,0.008 0.84,1.141 2.161,1.717 3.962,1.717 0.846,0 1.591,-0.093 2.344,-0.293 0.32,-0.085 0.543,-0.375 0.543,-0.708 v -1.669 c -0.002,-0.214 -0.097,-0.419 -0.261,-0.558 z m -18.252,0.527 c -3.042,0 -6.111,-1.722 -6.111,-5.572 0,-4.862 5.936,-6.58 12.167,-7.043 2.32,-0.043 4.097,2.161 4.311,4.575 v 0.989 c -0.062,0.647 -0.246,1.289 -0.568,1.888 -0.162,0.265 -0.356,0.557 -0.589,0.865 -0.04,0.048 -0.075,0.093 -0.103,0.133 -1.442,1.847 -4.223,4.165 -9.107,4.165 z"
           id="path3920" />
        <path
           inkscape:connector-curvature="0"
           d="m 725.07752,420.87269 h -2.047 c -0.393,0 -0.716,0.31 -0.731,0.703 -0.066,1.619 -0.892,1.836 -2.703,0.765 -0.009,-0.005 -0.018,-0.013 -0.027,-0.02 -0.178,-0.118 -0.362,-0.23 -0.546,-0.337 -0.011,-0.008 -0.02,-0.014 -0.031,-0.021 -0.087,-0.057 -0.168,-0.103 -0.244,-0.139 -1.982,-1.096 -4.307,-1.65 -6.924,-1.65 -3.739,0 -7.429,1.548 -10.122,4.249 -2.082,2.087 -4.564,5.827 -4.564,11.784 0,3.818 1.346,7.413 3.792,10.121 2.595,2.875 6.234,4.458 10.248,4.458 3.111,0 5.514,-0.819 7.335,-1.896 0.004,-0.002 0.007,-0.003 0.012,-0.005 1.954,-0.875 3.603,-2.184 3.135,2.233 -0.875,5.677 -4.519,8.764 -10.482,8.764 -4.175,0 -7.31,-1.405 -9.204,-2.584 -0.118,-0.073 -0.251,-0.109 -0.387,-0.109 -0.06,0 -0.122,0.006 -0.182,0.023 -0.193,0.049 -0.358,0.176 -0.456,0.35 l -0.97,1.724 c -0.189,0.336 -0.085,0.76 0.237,0.972 2.853,1.862 6.91,2.974 10.854,2.974 2.689,0 9.293,-0.625 12.493,-6.412 1.385,-2.481 2.031,-5.968 2.031,-10.969 v -17.456 c 0,-2.474 0.07,-4.678 0.214,-6.738 0.014,-0.203 -0.057,-0.401 -0.195,-0.55 -0.139,-0.151 -0.332,-0.234 -0.536,-0.234 z m -16.892,26.027 c -0.605,-0.24 -7.609,-3.216 -7.013,-11.812 0.551,-7.939 5.716,-10.454 6.517,-10.798 1.278,-0.5 2.701,-0.768 4.242,-0.768 1.665,0 3.113,0.327 4.354,0.873 6.845,3.871 7.696,16.452 0.884,21.467 -1.592,1 -3.436,1.572 -5.345,1.572 -1.343,0 -2.553,-0.192 -3.639,-0.534 z"
           id="path3922" />
        <path
           style="fill:url(#SVGID_2_)"
           inkscape:connector-curvature="0"
           d="m 626.30252,406.64669 c -2.337,2.337 -4.109,5.343 -5.032,8.655 -6.076,-0.094 -12.171,2.272 -17.007,7.11 -8.142,8.141 -10.674,22.912 0.667,34.253 9.542,9.543 23.793,9.687 33.145,0.334 4.421,-4.424 7.236,-10.507 7.297,-16.941 3.14,-0.836 6.125,-2.507 8.67,-5.049 6.956,-6.959 9.086,-18.919 -0.311,-28.318 -7.833,-7.831 -19.626,-7.848 -27.429,-0.044 z m 25.622,20.423 c -1.335,1.336 -3.045,2.324 -4.932,2.862 -3.027,0.868 -4.657,0.778 -5.698,2.515 -1.041,1.736 -0.926,1.941 -0.88,5.194 0.056,3.689 -1.333,7.514 -4.813,10.996 -5.32,5.318 -15.14,6.504 -22.366,-0.722 -5.693,-5.695 -8.365,-15.278 -0.778,-22.865 2.816,-2.813 6.866,-4.477 11.124,-4.401 2.961,0.051 3.306,0.16 5.212,-0.704 1.909,-0.87 1.082,-2.8 2.222,-6.205 0.556,-1.66 1.545,-3.295 3.092,-4.844 4.126,-4.126 11.721,-5.072 17.285,0.49 4.533,4.535 6.455,11.76 0.532,17.684 z"
           id="path3929" />
        <path
           inkscape:connector-curvature="0"
           d="m 557.08552,420.17169 c -3.604,0 -5.78,1.055 -7.803,2.675 0,10e-4 -10e-4,10e-4 -10e-4,0.002 -2.14,1.482 -3.267,1.373 -5.033,0.007 -0.008,-0.007 -0.015,-0.009 -0.023,-0.015 -1.786,-1.704 -4.111,-2.669 -6.696,-2.669 -2.797,0 -5.133,0.737 -7.113,2.275 -0.042,0.029 -0.085,0.062 -0.129,0.102 -0.878,0.785 -2.285,1.01 -2.444,-0.238 l -0.015,-0.316 c 0,-0.087 -0.002,-0.167 -0.011,-0.234 l -0.009,-0.19 c -0.019,-0.391 -0.341,-0.697 -0.732,-0.697 h -2.1 c -0.204,0 -0.397,0.083 -0.536,0.232 -0.139,0.149 -0.209,0.347 -0.195,0.55 0.148,2.118 0.214,4.13 0.214,6.523 v 21.82 c 0,0.405 0.328,0.732 0.732,0.732 h 2.209 c 0.404,0 0.732,-0.327 0.732,-0.732 v -17.457 c 0,-1.086 0.264,-1.975 0.486,-2.529 1.183,-3.106 4.304,-6.436 8.371,-6.436 4.432,0 7.296,3.476 7.296,8.857 v 17.564 c 0,0.405 0.328,0.732 0.732,0.732 h 2.21 c 0.404,0 0.732,-0.327 0.732,-0.732 v -18.317 c 0,-1.093 0.288,-1.956 0.54,-2.585 1.117,-2.651 4.065,-5.519 7.887,-5.519 4.983,0 7.727,3.681 7.727,10.366 v 16.055 c 0,0.405 0.328,0.732 0.732,0.732 h 2.209 c 0.403,0 0.731,-0.327 0.731,-0.732 v -16.001 c 0,-12.828 -8.189,-13.825 -10.7,-13.825 z"
           id="path3965" />
      </g>
    </g>
    <g
       transform="translate(-372.081,166.60038)"
       id="layer1-2"
       inkscape:label="レイヤー 1">
      <g
         id="g4647">
        <path
           inkscape:connector-curvature="0"
           d="m 470.75274,454.90715 c -1.336,-0.292 -2.281,-0.45 -3.442,-0.45 -2.847,0 -5.33,0.832 -7.391,2.467 -0.091,0.062 -0.192,0.142 -0.303,0.247 -0.231,0.197 -0.452,0.405 -0.668,0.621 -1.478,1.313 -2.76,1.95 -2.76,-1.235 v -0.666 c 0,-0.404 -0.327,-0.733 -0.732,-0.733 h -2.101 c -0.198,0 -0.388,0.081 -0.525,0.223 -0.139,0.143 -0.212,0.335 -0.206,0.533 0.105,3.333 0.215,6.778 0.215,9.622 v 18.749 c 0,0.403 0.328,0.731 0.732,0.731 h 2.209 c 0.404,0 0.732,-0.328 0.732,-0.731 v -9.913 c 0,-1.371 0.107,-3.805 0.309,-4.813 1.569,-7.798 4.982,-11.59 10.435,-11.59 0.979,0 1.881,0.164 2.874,0.364 0.048,0.01 0.096,0.013 0.144,0.013 0.148,0 0.294,-0.043 0.417,-0.129 0.163,-0.113 0.273,-0.288 0.306,-0.485 l 0.323,-1.993 c 0.062,-0.386 -0.187,-0.752 -0.568,-0.832 z"
           id="path3948" />
        <path
           inkscape:connector-curvature="0"
           d="m 444.70074,454.90715 c -1.337,-0.292 -2.281,-0.45 -3.442,-0.45 -2.847,0 -5.33,0.832 -7.391,2.467 -0.092,0.062 -0.192,0.142 -0.303,0.247 -0.231,0.197 -0.452,0.405 -0.668,0.621 -1.478,1.313 -2.759,1.95 -2.759,-1.235 v -0.666 c 0,-0.404 -0.327,-0.733 -0.732,-0.733 h -2.101 c -0.198,0 -0.388,0.081 -0.526,0.223 -0.138,0.143 -0.212,0.335 -0.206,0.533 0.105,3.333 0.215,6.778 0.215,9.622 v 18.749 c 0,0.403 0.327,0.731 0.732,0.731 h 2.209 c 0.404,0 0.732,-0.328 0.732,-0.731 v -9.913 c 0,-1.371 0.107,-3.805 0.309,-4.813 1.569,-7.798 4.983,-11.59 10.435,-11.59 0.979,0 1.881,0.164 2.874,0.364 0.048,0.01 0.096,0.013 0.144,0.013 0.148,0 0.294,-0.043 0.417,-0.129 0.163,-0.113 0.273,-0.288 0.306,-0.485 l 0.323,-1.993 c 0.061,-0.386 -0.188,-0.752 -0.568,-0.832 z"
           id="path3950" />
        <path
           inkscape:connector-curvature="0"
           d="m 559.79974,456.49815 c -2.512,-1.775 -5.292,-2.041 -6.726,-2.041 -2.91,0 -5.648,0.913 -7.822,2.496 -0.005,0.003 -0.01,0.003 -0.014,0.007 -1.004,0.649 -2.627,0.911 -2.618,-0.624 l 0,-0.021 c 0.002,-0.107 -0.003,-0.198 -0.013,-0.278 l -0.008,-0.181 c -0.019,-0.391 -0.34,-0.699 -0.731,-0.699 h -2.102 c -0.203,0 -0.396,0.086 -0.535,0.232 -0.138,0.148 -0.209,0.348 -0.195,0.549 0.152,2.282 0.214,4.17 0.214,6.526 v 21.819 c 0,0.403 0.328,0.731 0.731,0.731 h 2.209 c 0.404,0 0.732,-0.328 0.732,-0.731 v -17.51 c 0,-0.815 0.253,-1.763 0.49,-2.378 0.004,-0.01 0.006,-0.016 0.01,-0.026 1.043,-3.042 4.224,-6.118 8.417,-6.474 3.236,0 8.327,2.358 9.024,8.226 0.016,0.15 0.03,0.299 0.042,0.443 0.004,0.05 0.008,0.099 0.011,0.148 0.005,0.07 0.009,0.14 0.014,0.209 0.009,0.19 0.015,0.386 0.015,0.584 0,0.332 0.006,0.636 0.017,0.909 v 15.868 c 0,0.403 0.328,0.731 0.733,0.731 h 2.208 c 0.404,0 0.732,-0.328 0.732,-0.731 v -16.271 c 0,-5.372 -1.627,-9.246 -4.835,-11.513 z"
           id="path3952" />
        <path
           inkscape:connector-curvature="0"
           d="m 636.02374,481.83915 c -0.133,-0.111 -0.301,-0.173 -0.473,-0.173 -0.04,0 -0.08,0.005 -0.12,0.01 -0.587,0.097 -0.965,0.097 -1.442,0.097 -1.147,0 -2.177,-0.334 -2.177,-4.386 v -9.913 c 0,-2.344 -0.179,-5.367 -1.583,-7.971 -1.822,-3.384 -5.181,-5.099 -9.978,-5.099 -2.475,0 -6.217,0.516 -9.99,2.974 -0.315,0.205 -0.422,0.614 -0.25,0.949 l 0.861,1.67 c 0.098,0.188 0.272,0.325 0.478,0.377 0.058,0.013 0.116,0.019 0.173,0.019 0.151,0 0.299,-0.046 0.424,-0.133 2.314,-1.64 5.186,-2.506 8.305,-2.506 3.995,0 6.004,1.854 7,3.939 0,0 0,0 0,0.002 1.004,2.219 -0.561,4.402 -2.285,4.584 -0.085,0.005 -0.17,0.006 -0.254,0.012 -0.014,0 -0.028,0 -0.042,0 -0.055,-0.002 -0.101,0.002 -0.143,0.009 -10.978,0.628 -16.538,4.312 -16.538,10.98 0,2.028 0.803,4.057 2.202,5.569 1.233,1.332 3.56,2.92 7.635,2.92 3.471,0 6.271,-1.111 8.325,-2.472 0.061,-0.032 0.13,-0.076 0.211,-0.141 0.023,-0.017 0.042,-0.029 0.064,-0.047 0.128,-0.09 0.256,-0.18 0.378,-0.269 1.275,-0.825 1.969,-0.351 2.623,0.502 0.002,0.005 0.006,0.006 0.008,0.008 0.84,1.143 2.161,1.72 3.962,1.72 0.846,0 1.591,-0.094 2.344,-0.296 0.32,-0.086 0.543,-0.374 0.543,-0.706 v -1.672 c -0.002,-0.215 -0.097,-0.417 -0.261,-0.557 z m -18.252,0.529 c -3.042,0 -6.111,-1.725 -6.111,-5.573 0,-4.862 5.936,-6.58 12.167,-7.043 2.32,-0.043 4.097,2.161 4.311,4.575 v 0.988 c -0.062,0.647 -0.246,1.289 -0.568,1.889 -0.162,0.263 -0.356,0.556 -0.589,0.864 -0.04,0.048 -0.075,0.092 -0.103,0.134 -1.442,1.848 -4.223,4.166 -9.107,4.166 z"
           id="path3954" />
        <path
           inkscape:connector-curvature="0"
           d="m 599.89174,455.15715 h -2.047 c -0.393,0 -0.716,0.31 -0.731,0.704 -0.066,1.617 -0.892,1.835 -2.703,0.766 -0.009,-0.008 -0.018,-0.013 -0.027,-0.021 -0.178,-0.118 -0.362,-0.229 -0.546,-0.339 -0.011,-0.005 -0.02,-0.011 -0.031,-0.019 -0.087,-0.059 -0.168,-0.102 -0.244,-0.139 -1.982,-1.097 -4.307,-1.652 -6.924,-1.652 -3.739,0 -7.429,1.549 -10.122,4.249 -2.082,2.089 -4.564,5.828 -4.564,11.785 0,3.816 1.346,7.414 3.792,10.122 2.595,2.873 6.234,4.458 10.248,4.458 3.111,0 5.514,-0.822 7.335,-1.898 0.004,0 0.007,-0.003 0.012,-0.004 1.954,-0.874 3.603,-2.182 3.135,2.233 -0.875,5.677 -4.519,8.764 -10.482,8.764 -4.175,0 -7.31,-1.406 -9.204,-2.583 -0.118,-0.073 -0.251,-0.111 -0.387,-0.111 -0.06,0 -0.122,0.008 -0.182,0.022 -0.193,0.051 -0.358,0.177 -0.456,0.351 l -0.97,1.725 c -0.189,0.335 -0.085,0.763 0.237,0.972 2.853,1.864 6.91,2.976 10.854,2.976 2.689,0 9.293,-0.624 12.493,-6.413 1.385,-2.482 2.031,-5.968 2.031,-10.968 v -17.456 c 0,-2.476 0.07,-4.679 0.214,-6.738 0.014,-0.203 -0.057,-0.401 -0.195,-0.55 -0.139,-0.15 -0.332,-0.236 -0.536,-0.236 z m -16.892,26.028 c -0.605,-0.24 -7.609,-3.216 -7.013,-11.813 0.551,-7.939 5.716,-10.454 6.517,-10.796 1.278,-0.501 2.701,-0.77 4.242,-0.77 1.665,0 3.113,0.327 4.354,0.871 6.845,3.873 7.696,16.454 0.884,21.469 -1.592,1 -3.436,1.573 -5.345,1.573 -1.343,10e-4 -2.553,-0.192 -3.639,-0.534 z"
           id="path3956" />
        <path
           style="fill:url(#linearGradient4655)"
           inkscape:connector-curvature="0"
           d="m 501.11674,440.93115 c -2.337,2.339 -4.109,5.342 -5.032,8.657 -6.076,-0.094 -12.171,2.271 -17.007,7.109 -8.142,8.141 -10.674,22.911 0.667,34.251 9.542,9.545 23.793,9.688 33.145,0.336 4.421,-4.424 7.236,-10.507 7.297,-16.94 3.14,-0.837 6.125,-2.508 8.67,-5.049 6.956,-6.959 9.086,-18.919 -0.311,-28.318 -7.833,-7.83 -19.626,-7.848 -27.429,-0.046 z m 25.622,20.423 c -1.335,1.339 -3.045,2.324 -4.932,2.864 -3.027,0.868 -4.657,0.776 -5.698,2.515 -1.041,1.736 -0.926,1.941 -0.88,5.193 0.056,3.689 -1.333,7.515 -4.813,10.996 -5.32,5.317 -15.14,6.504 -22.366,-0.722 -5.693,-5.693 -8.365,-15.278 -0.778,-22.864 2.816,-2.814 6.866,-4.479 11.124,-4.403 2.961,0.053 3.306,0.161 5.212,-0.703 1.909,-0.868 1.082,-2.799 2.222,-6.205 0.556,-1.66 1.545,-3.294 3.092,-4.844 4.126,-4.125 11.721,-5.071 17.285,0.491 4.533,4.535 6.455,11.76 0.532,17.682 z"
           id="path3963" />
      </g>
    </g>
    <g
       id="droonga"
       transform="translate(291.46162,596.0671)">
      <linearGradient
         y2="36.467999"
         x2="122.8701"
         y1="36.467999"
         x1="62.063"
         gradientUnits="userSpaceOnUse"
         id="SVGID_1_-1">
        <stop
           id="stop8411"
           style="stop-color:#AE5881"
           offset="0.0061" />
        <stop
           id="stop8413"
           style="stop-color:#90196E"
           offset="1" />
      </linearGradient>
      <path
         style="fill:url(#SVGID_1_-1)"
         id="path8415"
         d="m 90.186,11.555 c -2.265,2.265 -3.981,5.176 -4.874,8.385 -5.887,-0.09 -11.792,2.202 -16.477,6.888 -7.889,7.888 -10.341,22.198 0.646,33.186 9.245,9.245 23.051,9.384 32.111,0.323 4.283,-4.285 7.012,-10.179 7.07,-16.412 3.041,-0.809 5.934,-2.429 8.399,-4.891 C 123.8,32.291 125.862,20.705 116.76,11.598 109.171,4.012 97.747,3.994 90.186,11.555 z m 24.823,19.786 c -1.294,1.294 -2.951,2.251 -4.779,2.773 -2.932,0.84 -4.511,0.754 -5.519,2.436 -1.009,1.683 -0.897,1.881 -0.853,5.031 0.054,3.575 -1.292,7.281 -4.663,10.653 -5.154,5.153 -14.667,6.302 -21.667,-0.698 -5.516,-5.518 -8.103,-14.802 -0.753,-22.151 2.729,-2.726 6.651,-4.338 10.777,-4.265 2.868,0.051 3.203,0.154 5.049,-0.682 1.85,-0.844 1.048,-2.713 2.152,-6.012 0.539,-1.608 1.497,-3.192 2.997,-4.693 3.997,-3.996 11.355,-4.912 16.746,0.476 4.39,4.394 6.251,11.393 0.513,17.132 z"
         inkscape:connector-curvature="0" />
      <path
         id="path8417"
         d="m 58.593,25.397 c -1.351,-0.293 -2.305,-0.453 -3.479,-0.453 -2.877,0 -5.387,0.841 -7.471,2.493 -0.093,0.063 -0.194,0.142 -0.307,0.251 -0.233,0.197 -0.457,0.407 -0.675,0.627 -1.494,1.327 -2.79,1.971 -2.79,-1.249 v -0.674 c 0,-0.408 -0.331,-0.739 -0.74,-0.739 h -2.124 c -0.201,0 -0.393,0.08 -0.532,0.225 -0.14,0.145 -0.214,0.338 -0.208,0.538 0.107,3.369 0.217,6.85 0.217,9.726 v 18.952 c 0,0.408 0.331,0.74 0.74,0.74 h 2.232 c 0.408,0 0.739,-0.332 0.739,-0.74 V 45.073 c 0,-1.386 0.109,-3.846 0.313,-4.865 1.585,-7.882 5.035,-11.714 10.547,-11.714 0.99,0 1.901,0.165 2.905,0.368 0.048,0.009 0.097,0.015 0.145,0.015 0.15,0 0.297,-0.047 0.421,-0.133 0.165,-0.115 0.276,-0.292 0.309,-0.49 l 0.327,-2.015 c 0.067,-0.389 -0.184,-0.758 -0.569,-0.842 z"
         inkscape:connector-curvature="0"
         style="fill:#040000" />
      <path
         id="path8419"
         d="m 150.359,27.006 c -2.538,-1.794 -5.35,-2.063 -6.799,-2.063 -2.941,0 -5.71,0.923 -7.905,2.521 -0.006,0.005 -0.01,0.006 -0.016,0.009 -1.016,0.655 -2.655,0.92 -2.646,-0.631 v -0.021 c 0.002,-0.108 -0.003,-0.201 -0.013,-0.28 l -0.008,-0.184 c -0.019,-0.396 -0.345,-0.705 -0.739,-0.705 h -2.125 c -0.205,0 -0.4,0.084 -0.539,0.234 -0.141,0.149 -0.213,0.349 -0.199,0.554 0.154,2.307 0.217,4.217 0.217,6.596 v 22.057 c 0,0.408 0.33,0.74 0.739,0.74 h 2.233 c 0.408,0 0.74,-0.332 0.74,-0.74 v -17.7 c 0,-0.82 0.255,-1.78 0.495,-2.403 0.003,-0.008 0.007,-0.018 0.009,-0.025 1.055,-3.076 4.27,-6.187 8.509,-6.545 3.271,0.003 8.416,2.386 9.121,8.314 0.017,0.153 0.031,0.303 0.043,0.449 0.004,0.05 0.009,0.1 0.013,0.15 0.004,0.07 0.01,0.142 0.014,0.21 0.009,0.193 0.014,0.39 0.014,0.59 0,0.338 0.006,0.644 0.018,0.92 v 16.04 c 0,0.408 0.332,0.74 0.74,0.74 h 2.232 c 0.408,0 0.74,-0.332 0.74,-0.74 V 38.645 c 0,-5.432 -1.644,-9.347 -4.888,-11.639 z"
         inkscape:connector-curvature="0"
         style="fill:#040000" />
      <path
         id="path8421"
         d="m 224.425,52.623 c -0.135,-0.115 -0.305,-0.177 -0.479,-0.177 -0.04,0 -0.081,0.003 -0.121,0.011 -0.594,0.098 -0.976,0.098 -1.457,0.098 -1.161,0 -2.202,-0.338 -2.202,-4.432 V 38.101 c 0,-2.369 -0.182,-5.426 -1.601,-8.058 -1.842,-3.42 -5.235,-5.153 -10.087,-5.153 -2.501,0 -6.284,0.521 -10.098,3.006 -0.318,0.206 -0.427,0.621 -0.254,0.959 l 0.872,1.688 c 0.098,0.191 0.274,0.329 0.482,0.381 0.058,0.013 0.117,0.02 0.175,0.02 0.151,0 0.302,-0.046 0.428,-0.135 2.339,-1.657 5.243,-2.533 8.395,-2.533 4.04,0 6.069,1.874 7.075,3.982 0.002,0 0.002,0 0.002,10e-4 1.014,2.243 -0.568,4.451 -2.311,4.635 -0.085,0.003 -0.172,0.007 -0.256,0.012 -0.015,0 -0.029,10e-4 -0.043,0 -0.057,-10e-4 -0.103,0.003 -0.146,0.009 -11.096,0.634 -16.715,4.357 -16.715,11.1 0,2.049 0.811,4.1 2.227,5.628 1.246,1.348 3.598,2.954 7.717,2.954 3.509,0 6.338,-1.125 8.415,-2.5 0.062,-0.031 0.132,-0.077 0.214,-0.142 0.021,-0.019 0.043,-0.032 0.064,-0.049 0.129,-0.091 0.259,-0.18 0.381,-0.271 1.291,-0.833 1.991,-0.354 2.651,0.509 0.003,0.005 0.006,0.005 0.009,0.008 0.849,1.153 2.186,1.737 4.005,1.737 0.854,0 1.608,-0.094 2.37,-0.298 0.322,-0.087 0.549,-0.38 0.549,-0.715 v -1.688 c 0.001,-0.218 -0.095,-0.424 -0.261,-0.565 z m -18.451,0.532 c -3.074,0 -6.176,-1.741 -6.176,-5.631 0,-4.916 6,-6.651 12.298,-7.121 2.346,-0.044 4.141,2.186 4.358,4.626 v 0.999 c -0.063,0.653 -0.25,1.304 -0.575,1.907 -0.162,0.268 -0.358,0.563 -0.595,0.876 -0.04,0.047 -0.076,0.093 -0.104,0.134 -1.457,1.868 -4.269,4.21 -9.206,4.21 z"
         inkscape:connector-curvature="0"
         style="fill:#040000" />
      <path
         id="path8423"
         d="m 189.635,25.653 h -2.07 c -0.396,0 -0.724,0.313 -0.739,0.709 -0.066,1.636 -0.9,1.856 -2.731,0.774 -0.01,-0.006 -0.019,-0.014 -0.028,-0.02 -0.18,-0.12 -0.365,-0.233 -0.552,-0.342 -0.011,-0.009 -0.021,-0.015 -0.03,-0.022 -0.09,-0.057 -0.171,-0.103 -0.248,-0.139 -2.005,-1.108 -4.353,-1.67 -6.998,-1.67 -3.781,0 -7.509,1.564 -10.232,4.296 -2.105,2.11 -4.613,5.89 -4.613,11.911 0,3.86 1.361,7.493 3.832,10.231 2.623,2.905 6.303,4.506 10.36,4.506 3.144,0 5.573,-0.829 7.413,-1.918 0.004,-10e-4 0.008,-0.003 0.014,-0.004 1.973,-0.884 3.641,-2.205 3.167,2.258 -0.884,5.737 -4.566,8.858 -10.594,8.858 -4.22,0 -7.39,-1.42 -9.304,-2.612 -0.119,-0.073 -0.254,-0.11 -0.391,-0.11 -0.062,0 -0.123,0.007 -0.184,0.022 -0.197,0.05 -0.363,0.178 -0.461,0.354 l -0.981,1.742 c -0.19,0.339 -0.086,0.77 0.241,0.983 2.883,1.882 6.984,3.006 10.969,3.006 2.721,0 9.396,-0.632 12.63,-6.481 1.399,-2.509 2.054,-6.033 2.054,-11.088 V 33.254 c 0,-2.501 0.069,-4.729 0.215,-6.811 0.015,-0.205 -0.057,-0.405 -0.196,-0.557 -0.142,-0.149 -0.338,-0.233 -0.543,-0.233 z M 172.56,51.96 c -0.613,-0.242 -7.692,-3.251 -7.089,-11.938 0.556,-8.026 5.778,-10.568 6.587,-10.915 1.293,-0.504 2.729,-0.777 4.289,-0.777 5.396,0 8.549,3.399 9.702,6.583 0.28,0.845 0.396,1.675 0.396,2.861 v 5.229 c 0,0.893 -0.205,1.953 -0.55,2.836 -1.603,3.981 -5.485,6.663 -9.657,6.663 -1.358,0 -2.581,-0.195 -3.678,-0.542 z"
         inkscape:connector-curvature="0"
         style="fill:#040000" />
      <path
         id="path8425"
         d="m 33.397,48.249 v -36.74 c 0,-0.415 -0.336,-0.752 -0.752,-0.752 h -2.269 c -0.415,0 -0.751,0.337 -0.751,0.752 v 11.436 c 0,0.978 -0.897,4.216 -3.652,2.909 -0.04,-0.019 -0.075,-0.033 -0.113,-0.05 -1.74,-0.839 -3.866,-1.381 -6.383,-1.381 -4.175,0 -8.011,1.655 -10.801,4.661 -2.832,3.051 -4.392,7.322 -4.392,12.027 0,8.787 6.199,15.414 14.418,15.414 3.305,0 5.961,-0.874 8.003,-2.17 0.057,-0.031 0.118,-0.067 0.184,-0.112 0.01,-0.008 0.019,-0.013 0.028,-0.019 0.003,-0.003 0.006,-0.004 0.01,-0.006 1.602,-1.088 3.111,-1.667 3.111,0.024 0,0.056 0.002,0.108 0.006,0.156 l 0.024,0.682 c 0.014,0.405 0.347,0.725 0.751,0.725 h 2.047 c 0.21,0 0.408,-0.087 0.551,-0.239 0.142,-0.152 0.214,-0.356 0.2,-0.564 -0.148,-2.116 -0.22,-4.326 -0.22,-6.753 z M 8.055,40.834 c 0,-7.792 4.524,-13.024 11.256,-13.024 5.774,0 8.93,3.582 9.959,6.938 0.005,0.015 0.01,0.027 0.015,0.043 0.155,0.414 0.34,1.212 0.34,2.669 v 5.587 c 0,0.919 -0.049,1.621 -0.288,2.293 -0.007,0.019 -0.013,0.038 -0.018,0.056 C 28.075,49.957 23.914,53.141 19.2,53.141 11.501,53.14 8.055,46.96 8.055,40.834 z"
         inkscape:connector-curvature="0"
         style="fill:#040000" />
    </g>
  </g>
</svg>
