<?xml version="1.0" encoding="UTF-8" standalone="no"?>
<!-- Created with Inkscape (http://www.inkscape.org/) -->

<svg
   xmlns:dc="http://purl.org/dc/elements/1.1/"
   xmlns:cc="http://creativecommons.org/ns#"
   xmlns:rdf="http://www.w3.org/1999/02/22-rdf-syntax-ns#"
   xmlns:svg="http://www.w3.org/2000/svg"
   xmlns="http://www.w3.org/2000/svg"
   xmlns:sodipodi="http://sodipodi.sourceforge.net/DTD/sodipodi-0.dtd"
   xmlns:inkscape="http://www.inkscape.org/namespaces/inkscape"
   width="234"
   height="60"
   id="svg2"
   version="1.1"
   inkscape:version="0.48.4 r9939"
   sodipodi:docname="新規ドキュメント 1">
  <defs
     id="defs4" />
  <sodipodi:namedview
     id="base"
     pagecolor="#ffffff"
     bordercolor="#666666"
     borderopacity="1.0"
     inkscape:pageopacity="0.0"
     inkscape:pageshadow="2"
     inkscape:zoom="0.7"
     inkscape:cx="134.90764"
     inkscape:cy="106.27293"
     inkscape:document-units="px"
     inkscape:current-layer="layer1"
     showgrid="false"
     inkscape:window-width="769"
     inkscape:window-height="433"
     inkscape:window-x="25"
     inkscape:window-y="25"
     inkscape:window-maximized="0" />
  <metadata
     id="metadata7">
    <rdf:RDF>
      <cc:Work
         rdf:about="">
        <dc:format>image/svg+xml</dc:format>
        <dc:type
           rdf:resource="http://purl.org/dc/dcmitype/StillImage" />
        <dc:title></dc:title>
      </cc:Work>
    </rdf:RDF>
  </metadata>
  <g
     inkscape:label="レイヤー 1"
     inkscape:groupmode="layer"
     id="layer1"
     transform="translate(0,-992.36218)">
    <g
       transform="translate(-703.70093,-667.39892)"
       id="g444">
      <rect
         style="fill:#ffffff"
         x="702.83801"
         y="1660.028"
         width="234"
         height="60"
         id="rect446" />
      <g
         id="g448">
        <g
           id="g450">
          <g
             id="g452">
            <g
               id="g454">
              <path
                 style="fill:#e0e1e1"
                 inkscape:connector-curvature="0"
                 d="m 732.498,1680.835 c -0.031,0.019 -0.054,0.029 -0.054,0.029 l 0.054,0.062 v -0.091 z"
                 id="path456" />
              <path
                 style="fill:#e0e1e1"
                 inkscape:connector-curvature="0"
                 d="m 742.858,1681.101 c -0.574,-2.071 -3.271,-2.586 -6.21,-1.948 -0.356,0.077 -0.741,0.194 -1.124,0.329 v 1.805 c 0.472,-0.087 1.005,-0.132 1.591,-0.083 2.267,0.182 2.445,3.184 0.107,6.522 -1.791,2.558 -5.047,5.022 -5.047,5.022 l 1.274,1.57 c 0,0 3.743,-2.24 6.103,-5.091 2.827,-3.419 3.905,-5.958 3.306,-8.126 z"
                 id="path458" />
            </g>
            <path
               style="fill:#e0e1e1"
               inkscape:connector-curvature="0"
               d="m 716.053,1695.341 h 10.239 v -2.928 h -6.719 v -1.516 -1.46 -7.017 c 0,-0.884 0.717,-1.601 1.601,-1.601 0.882,0 1.598,0.717 1.598,1.601 v 7.017 h 7.225 c 1.677,-1.996 2.688,-4.565 2.688,-7.379 0,-6.356 -5.156,-11.511 -11.511,-11.511 -6.357,0 -11.513,5.154 -11.513,11.511 0,3.649 1.703,6.896 4.354,9.001 0.629,0.501 2.038,2.105 2.038,3.285 0,0.587 0,0.997 0,0.997 z"
               id="path460" />
            <path
               style="fill:#e0e1e1"
               inkscape:connector-curvature="0"
               d="m 718.146,1699.647 h 2.462 c 1.182,-0.75 2.319,-1.518 3.36,-2.24 h -7.915 v 0.074 c 0,1.439 0.839,2.166 2.093,2.166 z"
               id="path462" />
            <path
               style="fill:#e0e1e1"
               inkscape:connector-curvature="0"
               d="m 712.026,1694.697 0.312,2.028 c 0,0 -2.367,2.953 -3.629,5.84 -1.154,2.646 1.743,4.003 5.319,2.572 6.848,-2.74 16.389,-10.299 16.389,-10.299 l -4.351,12.543 -3.672,-2.486 c 0,0 -4.299,3.08 -9.49,4.798 -6.72,2.225 -10.189,-2.107 -8.031,-6.077 2.799,-5.147 7.153,-8.919 7.153,-8.919 z"
               id="path464" />
          </g>
          <g
             id="g466">
            <path
               style="fill:#e0e1e1"
               inkscape:connector-curvature="0"
               d="m 766.491,1691.354 c 0.357,-1.063 0.404,-1.938 0.139,-2.625 -0.264,-0.682 -0.721,-1.224 -1.369,-1.619 -0.649,-0.398 -1.446,-0.678 -2.391,-0.839 -0.944,-0.163 -1.909,-0.243 -2.896,-0.243 -1.009,0 -2.067,0.04 -3.175,0.12 -1.107,0.082 -2.197,0.123 -3.267,0.123 -0.618,0 -1.287,-0.018 -2.005,-0.056 -0.718,-0.035 -1.401,-0.098 -2.052,-0.188 -0.209,0.811 -0.45,1.676 -0.716,2.596 -0.268,0.918 -0.54,1.838 -0.818,2.756 -0.276,0.921 -0.555,1.809 -0.83,2.663 -0.277,0.856 -0.527,1.618 -0.751,2.285 -0.296,0.884 -0.573,1.69 -0.827,2.419 -0.255,0.73 -0.516,1.443 -0.778,2.137 -0.257,0.676 -0.535,1.367 -0.83,2.068 h -6.543 l 4.129,2.433 h 9.003 l 0,0 h 10e-4 c 0.029,-0.271 0.141,-0.752 0.331,-1.446 0.19,-0.693 0.42,-1.464 0.683,-2.311 0.265,-0.848 0.531,-1.69 0.802,-2.527 0.273,-0.84 0.499,-1.529 0.68,-2.07 0.317,0.036 0.718,0.068 1.202,0.095 0.484,0.028 1.088,0.041 1.807,0.041 1.113,0 2.209,-0.095 3.292,-0.284 1.083,-0.188 2.095,-0.508 3.039,-0.959 0.942,-0.451 1.778,-1.051 2.501,-1.797 0.723,-0.75 1.27,-1.674 1.639,-2.772 z m -7.186,0.161 c -0.164,0.488 -0.369,0.947 -0.618,1.381 -0.248,0.432 -0.546,0.802 -0.896,1.107 -0.349,0.307 -0.767,0.551 -1.249,0.73 -0.482,0.179 -1.043,0.27 -1.68,0.27 h -0.618 c -0.103,0 -0.195,0 -0.272,-0.014 -0.079,-0.01 -0.17,-0.021 -0.266,-0.039 l 0.536,-1.596 0.516,-1.541 c 0.176,-0.523 0.365,-1.068 0.565,-1.635 0.2,-0.568 0.415,-1.194 0.646,-1.881 0.171,-0.018 0.346,-0.03 0.521,-0.041 0.18,-0.01 0.361,-0.013 0.546,-0.013 0.453,0 0.867,0.041 1.24,0.123 0.375,0.08 0.679,0.237 0.907,0.473 0.229,0.235 0.367,0.563 0.41,0.985 0.044,0.426 -0.051,0.989 -0.288,1.691 z"
               id="path468" />
            <path
               style="fill:#e0e1e1"
               inkscape:connector-curvature="0"
               d="m 780.025,1692.421 c -0.425,-0.387 -1.026,-0.697 -1.802,-0.932 -0.776,-0.234 -1.749,-0.353 -2.923,-0.353 -1.276,0 -2.487,0.128 -3.632,0.378 -1.145,0.254 -2.359,0.641 -3.646,1.163 l -0.189,2.407 0.877,0.053 c 0.532,-0.539 1.143,-0.918 1.833,-1.135 0.688,-0.217 1.374,-0.324 2.053,-0.324 0.371,0 0.713,0.022 1.027,0.068 0.313,0.045 0.572,0.135 0.772,0.27 0.202,0.135 0.329,0.324 0.383,0.567 0.051,0.243 0.014,0.554 -0.112,0.933 -0.086,0.253 -0.197,0.46 -0.334,0.622 -0.136,0.163 -0.346,0.307 -0.622,0.432 -0.281,0.128 -0.66,0.248 -1.142,0.366 -0.481,0.117 -1.111,0.258 -1.885,0.42 -0.87,0.198 -1.687,0.404 -2.446,0.621 -0.764,0.216 -1.451,0.486 -2.064,0.811 -0.612,0.325 -1.138,0.727 -1.576,1.203 -0.438,0.478 -0.777,1.076 -1.019,1.797 -0.225,0.668 -0.291,1.236 -0.202,1.705 0.09,0.469 0.306,0.855 0.644,1.161 0.34,0.307 0.793,0.524 1.357,0.65 0.565,0.125 1.197,0.188 1.896,0.188 0.783,0 1.599,-0.116 2.45,-0.351 0.85,-0.234 1.631,-0.586 2.343,-1.055 0.104,0.182 0.23,0.36 0.377,0.541 0.143,0.18 0.328,0.338 0.55,0.473 0.223,0.137 0.508,0.234 0.857,0.297 0.35,0.064 0.782,0.095 1.296,0.095 0.659,0 1.415,-0.104 2.265,-0.31 0.853,-0.206 1.631,-0.5 2.333,-0.879 0.022,-0.126 0.448,-1.397 0.517,-1.542 -0.457,0.2 -0.871,0.298 -1.241,0.298 -0.268,0 -0.455,-0.059 -0.559,-0.176 -0.106,-0.117 -0.157,-0.283 -0.156,-0.5 -10e-4,-0.216 0.043,-0.464 0.125,-0.742 0.083,-0.281 0.181,-0.583 0.29,-0.906 0.108,-0.324 0.25,-0.717 0.425,-1.178 0.174,-0.457 0.35,-0.936 0.526,-1.432 0.176,-0.496 0.355,-0.982 0.537,-1.459 0.18,-0.477 0.328,-0.889 0.441,-1.23 0.194,-0.576 0.245,-1.127 0.154,-1.65 -0.095,-0.522 -0.351,-0.976 -0.778,-1.365 z m -7.529,9.287 c -0.122,0.36 -0.35,0.658 -0.687,0.893 -0.335,0.234 -0.74,0.352 -1.213,0.352 -0.516,0 -0.802,-0.176 -0.857,-0.527 -0.057,-0.352 -0.008,-0.762 0.15,-1.23 0.146,-0.432 0.295,-0.789 0.45,-1.066 0.156,-0.28 0.368,-0.529 0.635,-0.745 0.27,-0.216 0.617,-0.41 1.046,-0.581 0.426,-0.172 0.972,-0.355 1.637,-0.554 l -1.161,3.458 z"
               id="path470" />
            <path
               style="fill:#e0e1e1"
               inkscape:connector-curvature="0"
               d="m 791.936,1693.544 c 0.474,0 0.934,0.01 1.38,0.025 0.447,0.02 0.9,0.046 1.362,0.082 0.028,-0.146 0.521,-1.799 0.708,-2.108 -0.425,0.036 -0.869,0.063 -1.339,0.082 -0.47,0.017 -0.961,0.025 -1.477,0.025 0.097,-0.286 0.233,-0.682 0.413,-1.185 0.18,-0.501 0.378,-1.041 0.603,-1.615 0.224,-0.574 0.459,-1.148 0.702,-1.723 0.243,-0.575 0.478,-1.066 0.696,-1.48 l -0.445,-0.324 c -1.181,0.576 -2.369,1.098 -3.566,1.563 -1.197,0.465 -2.392,0.889 -3.589,1.265 l -1.174,3.499 c -0.351,0 -0.758,-0.01 -1.225,-0.025 -0.468,-0.019 -0.83,-0.046 -1.086,-0.082 -0.006,0.146 -0.643,1.981 -0.707,2.108 0.362,-0.036 0.747,-0.062 1.154,-0.082 0.408,-0.016 0.817,-0.025 1.229,-0.025 l -1.206,3.596 c -0.224,0.666 -0.472,1.342 -0.742,2.027 -0.271,0.685 -0.514,1.352 -0.732,2 -0.478,1.424 -0.434,2.506 0.131,3.246 0.564,0.738 1.742,1.107 3.531,1.107 0.805,0 1.625,-0.067 2.464,-0.203 0.837,-0.135 1.676,-0.319 2.518,-0.555 0.006,-0.145 0.415,-1.486 0.588,-1.757 -0.276,0.09 -0.55,0.167 -0.819,0.229 -0.267,0.063 -0.534,0.096 -0.802,0.096 -1.235,0 -1.669,-0.55 -1.299,-1.648 l 2.729,-8.138 z"
               id="path472" />
            <path
               style="fill:#e0e1e1"
               inkscape:connector-curvature="0"
               d="m 810.136,1693.679 c -0.449,-0.865 -1.155,-1.506 -2.118,-1.92 -0.964,-0.414 -2.061,-0.622 -3.297,-0.622 -1.42,0 -2.708,0.188 -3.862,0.568 -1.157,0.38 -2.183,0.889 -3.076,1.526 -0.894,0.641 -1.651,1.393 -2.27,2.26 -0.62,0.863 -1.093,1.783 -1.419,2.757 -0.15,0.45 -0.271,0.94 -0.355,1.474 -0.087,0.531 -0.095,1.062 -0.027,1.594 0.069,0.531 0.224,1.051 0.469,1.555 0.24,0.506 0.624,0.947 1.145,1.325 0.521,0.378 1.199,0.676 2.031,0.894 0.833,0.216 1.857,0.323 3.071,0.323 0.926,0 1.899,-0.082 2.923,-0.243 1.021,-0.162 2.001,-0.415 2.939,-0.756 0.167,-0.254 0.316,-0.475 0.452,-0.664 0.137,-0.189 0.275,-0.373 0.419,-0.554 0.142,-0.181 0.296,-0.36 0.458,-0.54 0.163,-0.181 0.357,-0.389 0.581,-0.621 l -0.528,-0.731 c -0.326,0.235 -0.689,0.446 -1.093,0.634 -0.402,0.19 -0.812,0.353 -1.229,0.488 -0.414,0.134 -0.833,0.244 -1.251,0.324 -0.42,0.08 -0.793,0.121 -1.121,0.121 -0.681,0 -1.227,-0.115 -1.644,-0.351 -0.414,-0.235 -0.714,-0.55 -0.9,-0.947 -0.186,-0.396 -0.269,-0.842 -0.246,-1.337 0.021,-0.496 0.124,-1.016 0.307,-1.556 2.239,-0.054 4.472,-0.081 6.693,-0.081 0.454,0 0.914,0.01 1.383,0.027 0.467,0.018 0.902,0.036 1.309,0.054 0.23,-0.81 0.42,-1.653 0.569,-2.528 0.149,-0.874 0.046,-1.698 -0.313,-2.473 z m -5.09,1.784 c -0.141,0.45 -0.284,0.892 -0.429,1.325 h -3.488 c 0.139,-0.414 0.294,-0.848 0.466,-1.297 0.171,-0.451 0.375,-0.861 0.614,-1.23 0.234,-0.369 0.519,-0.676 0.848,-0.92 0.328,-0.242 0.72,-0.364 1.173,-0.364 0.432,0 0.721,0.116 0.87,0.351 0.147,0.234 0.211,0.536 0.188,0.905 -0.021,0.37 -0.101,0.78 -0.242,1.23 z"
               id="path474" />
            <path
               style="fill:#e0e1e1"
               inkscape:connector-curvature="0"
               d="m 826.178,1691.137 c -0.557,0 -1.064,0.046 -1.527,0.136 -0.463,0.091 -0.921,0.229 -1.376,0.419 -0.454,0.19 -0.906,0.419 -1.356,0.69 -0.451,0.27 -0.923,0.584 -1.414,0.945 0.338,-0.703 0.636,-1.406 0.893,-2.109 -1.105,0.162 -5.994,0.072 -6.483,0 -0.182,0.848 -0.379,1.648 -0.593,2.406 -0.211,0.758 -0.481,1.623 -0.808,2.596 l -0.717,2.137 c -0.399,1.188 -0.816,2.369 -1.251,3.542 -0.434,1.172 -0.905,2.333 -1.416,3.486 0.575,-0.055 6.208,-0.035 6.793,0 0.125,-0.558 0.284,-1.171 0.477,-1.838 0.193,-0.667 0.466,-1.523 0.816,-2.568 l 0.816,-2.435 c 0.169,-0.504 0.347,-1 0.529,-1.485 0.184,-0.488 0.395,-0.92 0.637,-1.298 0.24,-0.379 0.516,-0.685 0.832,-0.92 0.315,-0.234 0.698,-0.352 1.152,-0.352 0.412,0 0.702,0.087 0.871,0.258 0.167,0.172 0.263,0.4 0.278,0.689 0.017,0.288 -0.021,0.604 -0.117,0.946 -0.096,0.342 -0.201,0.692 -0.322,1.054 -0.454,1.352 -0.919,2.676 -1.396,3.975 -0.477,1.297 -0.983,2.622 -1.519,3.974 0.56,-0.071 6.199,-0.071 6.729,0 0.153,-0.577 0.347,-1.235 0.587,-1.974 0.237,-0.738 0.468,-1.441 0.691,-2.108 l 0.39,-1.163 0.345,-1.026 c 0.128,-0.38 0.262,-0.767 0.404,-1.163 0.145,-0.396 0.28,-0.784 0.407,-1.162 l 0.346,-1.027 c 0.505,-1.516 0.448,-2.662 -0.173,-3.447 -0.62,-0.787 -1.796,-1.178 -3.525,-1.178 z"
               id="path476" />
            <path
               style="fill:#e0e1e1"
               inkscape:connector-curvature="0"
               d="m 841.72,1691.65 c 0.097,-0.286 0.233,-0.682 0.412,-1.185 0.18,-0.501 0.38,-1.041 0.604,-1.615 0.223,-0.574 0.457,-1.148 0.702,-1.723 0.241,-0.574 0.476,-1.066 0.696,-1.48 l -0.447,-0.324 c -1.18,0.576 -2.369,1.098 -3.564,1.563 -1.196,0.466 -2.393,0.889 -3.59,1.265 l -1.173,3.499 c -0.35,0 -0.758,-0.01 -1.227,-0.025 -0.467,-0.019 -0.828,-0.046 -1.083,-0.082 -0.009,0.146 -0.645,1.981 -0.708,2.108 0.362,-0.036 0.746,-0.062 1.154,-0.082 0.406,-0.016 0.815,-0.025 1.228,-0.025 l -1.207,3.596 c -0.222,0.666 -0.471,1.342 -0.74,2.027 -0.271,0.685 -0.517,1.352 -0.732,2 -0.479,1.424 -0.435,2.506 0.13,3.246 0.564,0.738 1.744,1.107 3.533,1.107 0.804,0 1.624,-0.067 2.461,-0.203 0.839,-0.135 1.676,-0.319 2.518,-0.555 0.007,-0.145 0.416,-1.486 0.59,-1.757 -0.278,0.09 -0.552,0.167 -0.818,0.229 -0.269,0.063 -0.537,0.096 -0.802,0.096 -1.237,0 -1.672,-0.55 -1.302,-1.648 l 2.729,-8.139 c 0.473,0 0.934,0.01 1.381,0.025 0.445,0.02 0.9,0.046 1.361,0.082 0.031,-0.146 0.521,-1.799 0.709,-2.108 -0.426,0.036 -0.871,0.063 -1.341,0.082 -0.467,0.018 -0.96,0.026 -1.474,0.026 z"
               id="path478" />
            <path
               style="fill:#e0e1e1"
               inkscape:connector-curvature="0"
               d="m 869.739,1693.813 c -0.39,0.055 -0.94,0.1 -1.651,0.136 -0.713,0.036 -1.447,0.063 -2.203,0.081 -0.758,0.019 -1.459,0.031 -2.099,0.041 -0.642,0.01 -1.086,0.013 -1.333,0.013 0.308,-0.92 0.613,-1.812 0.914,-2.675 0.299,-0.867 0.624,-1.758 0.976,-2.68 0.287,0 0.709,0.01 1.26,0.016 0.554,0.01 1.165,0.027 1.835,0.053 0.671,0.027 1.372,0.055 2.104,0.083 0.732,0.026 1.432,0.059 2.099,0.093 0.042,-0.25 0.883,-2.693 0.989,-2.945 -1.144,0.09 -2.336,0.152 -3.584,0.188 -1.246,0.038 -2.427,0.056 -3.538,0.056 -1.11,0 -2.304,-0.018 -3.579,-0.056 -1.275,-0.035 -2.574,-0.098 -3.904,-0.188 -0.337,1.314 -0.695,2.627 -1.071,3.932 -0.376,1.309 -0.786,2.619 -1.228,3.936 -0.654,1.945 -1.316,3.861 -1.988,5.744 -0.673,1.883 -1.398,3.799 -2.174,5.745 0.62,-0.071 6.237,-0.161 7.439,0 0.114,-0.522 0.285,-1.185 0.513,-1.986 0.227,-0.802 0.47,-1.632 0.727,-2.487 0.256,-0.856 0.516,-1.691 0.776,-2.5 0.263,-0.812 0.483,-1.486 0.664,-2.028 0.618,0 1.238,0.01 1.858,0.026 0.623,0.019 1.237,0.045 1.841,0.081 l 3.385,0.218 c 0.025,-0.201 0.862,-2.697 0.972,-2.897 z"
               id="path480" />
            <path
               style="fill:#e0e1e1"
               inkscape:connector-curvature="0"
               d="m 873.51,1691.218 c -0.129,0.506 -0.239,0.942 -0.331,1.312 -0.095,0.37 -0.208,0.779 -0.336,1.23 -0.133,0.45 -0.297,0.991 -0.497,1.622 -0.203,0.632 -0.477,1.461 -0.82,2.488 -0.351,1.045 -0.645,1.906 -0.881,2.582 -0.239,0.674 -0.447,1.269 -0.63,1.783 -0.184,0.514 -0.373,1.006 -0.572,1.473 -0.198,0.47 -0.436,1.027 -0.716,1.677 0.553,-0.055 6.312,-0.071 6.885,0 0.106,-0.378 0.222,-0.798 0.346,-1.257 0.122,-0.46 0.26,-0.933 0.414,-1.42 0.15,-0.486 0.306,-0.973 0.457,-1.46 0.153,-0.485 0.299,-0.937 0.438,-1.352 l 0.491,-1.459 c 0.289,-0.866 0.657,-1.915 1.102,-3.149 0.445,-1.234 0.978,-2.592 1.598,-4.07 -1.188,0.162 -6.402,0.092 -6.948,0 z"
               id="path482" />
            <path
               style="fill:#e0e1e1"
               inkscape:connector-curvature="0"
               d="m 896.704,1693.679 c -0.452,-0.865 -1.157,-1.506 -2.12,-1.92 -0.961,-0.414 -2.06,-0.622 -3.295,-0.622 -1.421,0 -2.709,0.188 -3.864,0.568 -1.156,0.38 -2.182,0.889 -3.075,1.526 -0.895,0.641 -1.649,1.393 -2.271,2.26 -0.619,0.863 -1.092,1.783 -1.418,2.757 -0.15,0.45 -0.27,0.94 -0.356,1.474 -0.085,0.531 -0.094,1.062 -0.024,1.594 0.068,0.531 0.223,1.051 0.465,1.555 0.242,0.506 0.625,0.947 1.146,1.325 0.52,0.378 1.198,0.676 2.031,0.894 0.834,0.216 1.856,0.323 3.07,0.323 0.928,0 1.902,-0.082 2.922,-0.243 1.022,-0.162 2.003,-0.415 2.941,-0.756 0.166,-0.254 0.316,-0.475 0.453,-0.664 0.134,-0.189 0.275,-0.373 0.417,-0.554 0.144,-0.181 0.297,-0.36 0.46,-0.54 0.164,-0.181 0.357,-0.389 0.579,-0.621 l -0.527,-0.731 c -0.325,0.235 -0.688,0.446 -1.092,0.634 -0.403,0.19 -0.813,0.353 -1.229,0.488 -0.415,0.134 -0.833,0.244 -1.251,0.324 -0.417,0.08 -0.793,0.121 -1.121,0.121 -0.68,0 -1.228,-0.115 -1.642,-0.351 -0.416,-0.235 -0.718,-0.55 -0.903,-0.947 -0.187,-0.396 -0.269,-0.842 -0.246,-1.337 0.022,-0.496 0.124,-1.016 0.307,-1.556 2.24,-0.054 4.473,-0.081 6.696,-0.081 0.453,0 0.912,0.01 1.38,0.027 0.467,0.018 0.902,0.036 1.309,0.054 0.231,-0.81 0.421,-1.653 0.571,-2.528 0.148,-0.874 0.044,-1.698 -0.313,-2.473 z m -5.091,1.784 c -0.143,0.45 -0.283,0.892 -0.43,1.325 h -3.487 c 0.138,-0.414 0.295,-0.848 0.465,-1.297 0.171,-0.451 0.377,-0.861 0.614,-1.23 0.235,-0.369 0.52,-0.676 0.849,-0.92 0.329,-0.242 0.718,-0.364 1.173,-0.364 0.432,0 0.72,0.116 0.869,0.351 0.148,0.234 0.21,0.536 0.189,0.905 -0.02,0.37 -0.102,0.78 -0.242,1.23 z"
               id="path484" />
            <path
               style="fill:#e0e1e1"
               inkscape:connector-curvature="0"
               d="m 910.537,1684.839 c -0.607,0.09 -6.371,0.09 -6.917,0 -0.216,0.83 -0.4,1.531 -0.551,2.108 -0.154,0.577 -0.305,1.104 -0.454,1.581 -0.15,0.478 -0.293,0.934 -0.426,1.365 -0.138,0.434 -0.291,0.91 -0.468,1.432 l -2.874,8.571 c -0.309,0.919 -0.651,1.849 -1.026,2.784 -0.376,0.938 -0.741,1.838 -1.093,2.704 0.595,-0.055 6.354,-0.071 6.885,0 0.104,-0.378 0.239,-0.838 0.4,-1.378 0.161,-0.541 0.334,-1.117 0.519,-1.731 0.186,-0.612 0.376,-1.23 0.574,-1.852 0.199,-0.622 0.392,-1.211 0.579,-1.771 l 2.26,-6.732 c 0.417,-1.244 0.852,-2.465 1.305,-3.664 0.454,-1.197 0.882,-2.337 1.287,-3.417 z"
               id="path486" />
            <path
               style="fill:#e0e1e1"
               inkscape:connector-curvature="0"
               d="m 936.151,1687.271 -4.132,-2.432 h -8.192 v 10e-4 l -0.015,-10e-4 c -0.375,1.297 -0.752,2.576 -1.135,3.839 -0.382,1.261 -0.789,2.54 -1.226,3.839 -0.158,-0.145 -0.328,-0.297 -0.509,-0.461 -0.184,-0.161 -0.41,-0.31 -0.685,-0.444 -0.274,-0.136 -0.605,-0.248 -0.998,-0.339 -0.394,-0.09 -0.866,-0.136 -1.422,-0.136 -0.617,0 -1.355,0.118 -2.216,0.353 -0.862,0.234 -1.739,0.641 -2.632,1.217 -0.894,0.576 -1.735,1.337 -2.526,2.283 -0.791,0.947 -1.427,2.141 -1.911,3.582 -0.272,0.812 -0.419,1.633 -0.438,2.461 -0.022,0.83 0.133,1.576 0.466,2.244 0.333,0.666 0.868,1.199 1.61,1.595 0.741,0.396 1.729,0.595 2.966,0.595 0.513,0 0.979,-0.023 1.397,-0.068 0.414,-0.043 0.825,-0.134 1.23,-0.27 0.407,-0.135 0.801,-0.315 1.186,-0.541 0.384,-0.225 0.799,-0.509 1.243,-0.852 -0.188,0.559 -0.404,1.109 -0.647,1.649 0.562,-0.071 5.728,-0.071 6.237,0 0.162,-0.665 0.336,-1.339 0.521,-2.015 0.187,-0.676 0.399,-1.404 0.644,-2.189 0.24,-0.783 0.518,-1.648 0.823,-2.594 0.308,-0.948 0.662,-2.017 1.06,-3.205 0.562,-1.676 1.162,-3.434 1.801,-5.271 0.335,-0.971 0.682,-1.914 1.039,-2.84 h 6.461 z m -16.488,10.951 c -0.237,0.702 -0.478,1.359 -0.724,1.974 -0.248,0.612 -0.518,1.14 -0.81,1.581 -0.292,0.441 -0.616,0.789 -0.967,1.039 -0.352,0.255 -0.766,0.38 -1.238,0.38 -0.433,0 -0.742,-0.122 -0.928,-0.366 -0.187,-0.242 -0.284,-0.576 -0.297,-1 -0.013,-0.423 0.049,-0.913 0.185,-1.473 0.137,-0.559 0.311,-1.154 0.521,-1.785 0.236,-0.701 0.482,-1.355 0.736,-1.96 0.253,-0.603 0.534,-1.129 0.839,-1.581 0.306,-0.45 0.642,-0.807 1.006,-1.067 0.366,-0.262 0.775,-0.394 1.229,-0.394 0.74,0 1.14,0.357 1.199,1.069 0.061,0.712 -0.19,1.905 -0.751,3.583 z"
               id="path488" />
            <path
               style="fill:#e0e1e1"
               inkscape:connector-curvature="0"
               d="m 876.16,1688.077 c 0.201,0.251 0.467,0.449 0.792,0.597 0.325,0.146 0.706,0.222 1.142,0.222 0.414,0 0.834,-0.075 1.26,-0.222 0.425,-0.147 0.82,-0.341 1.188,-0.583 0.367,-0.244 0.693,-0.533 0.975,-0.871 0.279,-0.336 0.48,-0.686 0.604,-1.051 0.121,-0.363 0.155,-0.713 0.101,-1.051 -0.056,-0.337 -0.186,-0.626 -0.39,-0.869 -0.206,-0.242 -0.471,-0.438 -0.797,-0.584 -0.327,-0.148 -0.697,-0.221 -1.112,-0.221 -0.435,0 -0.864,0.072 -1.29,0.221 -0.425,0.146 -0.821,0.346 -1.192,0.597 -0.371,0.25 -0.694,0.54 -0.973,0.869 -0.279,0.329 -0.479,0.675 -0.6,1.038 -0.123,0.365 -0.155,0.711 -0.098,1.039 0.057,0.328 0.188,0.617 0.39,0.869 z"
               id="path490" />
          </g>
        </g>
        <g
           id="g492">
          <g
             id="g494">
            <g
               id="g496">
              <path
                 style="fill:#004ea2"
                 inkscape:connector-curvature="0"
                 d="m 731.789,1680.044 c -0.031,0.018 -0.054,0.029 -0.054,0.029 l 0.054,0.062 v -0.091 z"
                 id="path498" />
              <path
                 style="fill:#738792"
                 inkscape:connector-curvature="0"
                 d="m 742.149,1680.31 c -0.574,-2.072 -3.271,-2.586 -6.21,-1.949 -0.356,0.078 -0.741,0.195 -1.124,0.33 v 1.805 c 0.472,-0.088 1.005,-0.133 1.591,-0.084 2.267,0.182 2.445,3.184 0.107,6.523 -1.791,2.557 -5.047,5.021 -5.047,5.021 l 1.274,1.57 c 0,0 3.743,-2.24 6.103,-5.09 2.827,-3.419 3.905,-5.958 3.306,-8.126 z"
                 id="path500" />
            </g>
            <path
               style="fill:#004ea2"
               inkscape:connector-curvature="0"
               d="m 715.344,1694.55 h 10.239 v -2.928 h -6.719 v -1.516 -1.461 -7.016 c 0,-0.885 0.717,-1.602 1.601,-1.602 0.882,0 1.598,0.717 1.598,1.602 v 7.016 h 7.225 c 1.677,-1.996 2.688,-4.564 2.688,-7.379 0,-6.355 -5.156,-11.51 -11.511,-11.51 -6.357,0 -11.513,5.154 -11.513,11.51 0,3.65 1.703,6.896 4.354,9.002 0.629,0.5 2.038,2.105 2.038,3.285 0,0.587 0,0.997 0,0.997 z"
               id="path502" />
            <path
               style="fill:#738792"
               inkscape:connector-curvature="0"
               d="m 717.437,1698.856 h 2.462 c 1.182,-0.75 2.319,-1.518 3.36,-2.24 h -7.915 v 0.074 c 0,1.438 0.839,2.166 2.093,2.166 z"
               id="path504" />
            <path
               style="fill:#004ea2"
               inkscape:connector-curvature="0"
               d="m 711.317,1693.905 0.312,2.029 c 0,0 -2.367,2.953 -3.629,5.84 -1.154,2.645 1.743,4.002 5.319,2.572 6.848,-2.74 16.389,-10.299 16.389,-10.299 l -4.351,12.543 -3.672,-2.486 c 0,0 -4.299,3.08 -9.49,4.797 -6.72,2.225 -10.189,-2.107 -8.031,-6.076 2.799,-5.148 7.153,-8.92 7.153,-8.92 z"
               id="path506" />
          </g>
          <g
             id="g508">
            <path
               style="fill:#004ea2"
               inkscape:connector-curvature="0"
               d="m 765.782,1690.562 c 0.357,-1.063 0.404,-1.938 0.139,-2.624 -0.264,-0.683 -0.721,-1.225 -1.369,-1.62 -0.649,-0.397 -1.446,-0.677 -2.391,-0.839 -0.945,-0.162 -1.909,-0.242 -2.896,-0.242 -1.009,0 -2.067,0.039 -3.175,0.119 -1.107,0.082 -2.197,0.123 -3.267,0.123 -0.618,0 -1.287,-0.018 -2.005,-0.055 -0.718,-0.035 -1.401,-0.099 -2.052,-0.188 -0.209,0.811 -0.45,1.675 -0.716,2.595 -0.268,0.919 -0.54,1.839 -0.818,2.757 -0.276,0.92 -0.555,1.809 -0.83,2.662 -0.277,0.857 -0.527,1.618 -0.751,2.285 -0.296,0.884 -0.573,1.69 -0.827,2.42 -0.255,0.73 -0.516,1.442 -0.778,2.136 -0.257,0.677 -0.535,1.368 -0.83,2.069 h -6.543 l 4.129,2.432 h 9.003 l 0,0 h 0.001 c 0.029,-0.27 0.141,-0.752 0.331,-1.445 0.19,-0.694 0.42,-1.465 0.683,-2.312 0.265,-0.847 0.531,-1.69 0.802,-2.527 0.273,-0.839 0.499,-1.528 0.68,-2.069 0.317,0.035 0.718,0.068 1.202,0.094 0.484,0.028 1.088,0.041 1.807,0.041 1.113,0 2.209,-0.094 3.292,-0.283 1.083,-0.189 2.095,-0.509 3.039,-0.959 0.942,-0.451 1.778,-1.051 2.501,-1.797 0.723,-0.75 1.27,-1.674 1.639,-2.773 z m -7.186,0.162 c -0.164,0.487 -0.369,0.946 -0.618,1.381 -0.248,0.432 -0.546,0.801 -0.896,1.107 -0.349,0.307 -0.767,0.55 -1.249,0.73 -0.482,0.178 -1.043,0.269 -1.68,0.269 h -0.618 c -0.103,0 -0.195,0 -0.272,-0.013 -0.079,-0.01 -0.17,-0.021 -0.266,-0.039 l 0.536,-1.596 0.516,-1.541 c 0.176,-0.523 0.365,-1.068 0.565,-1.636 0.2,-0.568 0.415,-1.194 0.646,-1.88 0.171,-0.018 0.346,-0.031 0.521,-0.041 0.18,-0.01 0.361,-0.014 0.546,-0.014 0.453,0 0.867,0.041 1.24,0.123 0.375,0.08 0.679,0.238 0.907,0.473 0.229,0.235 0.367,0.564 0.41,0.986 0.044,0.425 -0.051,0.988 -0.288,1.691 z"
               id="path510" />
            <path
               style="fill:#004ea2"
               inkscape:connector-curvature="0"
               d="m 779.316,1691.63 c -0.425,-0.387 -1.026,-0.698 -1.802,-0.932 -0.776,-0.234 -1.749,-0.354 -2.923,-0.354 -1.276,0 -2.487,0.128 -3.632,0.379 -1.145,0.254 -2.359,0.64 -3.646,1.162 l -0.189,2.407 0.877,0.054 c 0.532,-0.539 1.143,-0.919 1.833,-1.135 0.688,-0.217 1.374,-0.324 2.053,-0.324 0.371,0 0.713,0.021 1.027,0.067 0.313,0.045 0.572,0.136 0.772,0.27 0.202,0.136 0.329,0.325 0.383,0.567 0.051,0.244 0.014,0.555 -0.112,0.933 -0.086,0.253 -0.197,0.46 -0.334,0.622 -0.136,0.164 -0.346,0.307 -0.622,0.432 -0.281,0.129 -0.66,0.248 -1.142,0.367 -0.481,0.116 -1.111,0.257 -1.885,0.419 -0.87,0.198 -1.687,0.405 -2.446,0.621 -0.764,0.216 -1.451,0.486 -2.064,0.812 -0.612,0.324 -1.138,0.726 -1.576,1.203 -0.438,0.477 -0.777,1.076 -1.019,1.797 -0.225,0.668 -0.291,1.235 -0.202,1.704 0.09,0.469 0.306,0.856 0.644,1.161 0.34,0.307 0.793,0.525 1.357,0.65 0.565,0.125 1.197,0.188 1.896,0.188 0.783,0 1.599,-0.116 2.45,-0.35 0.85,-0.234 1.631,-0.587 2.343,-1.055 0.104,0.181 0.23,0.359 0.377,0.541 0.143,0.18 0.328,0.338 0.55,0.473 0.223,0.136 0.508,0.233 0.857,0.297 0.349,0.064 0.782,0.094 1.296,0.094 0.659,0 1.415,-0.104 2.265,-0.309 0.853,-0.207 1.631,-0.501 2.333,-0.879 0.022,-0.127 0.448,-1.398 0.517,-1.543 -0.457,0.2 -0.871,0.299 -1.241,0.299 -0.268,0 -0.455,-0.059 -0.559,-0.176 -0.106,-0.117 -0.157,-0.283 -0.156,-0.501 -10e-4,-0.216 0.043,-0.464 0.125,-0.742 0.083,-0.28 0.181,-0.583 0.29,-0.905 0.108,-0.325 0.25,-0.717 0.425,-1.178 0.174,-0.458 0.35,-0.936 0.526,-1.432 0.177,-0.497 0.355,-0.982 0.537,-1.46 0.18,-0.477 0.328,-0.889 0.441,-1.23 0.194,-0.576 0.245,-1.126 0.154,-1.649 -0.094,-0.523 -0.351,-0.977 -0.778,-1.365 z m -7.529,9.287 c -0.122,0.359 -0.35,0.657 -0.687,0.893 -0.335,0.234 -0.74,0.352 -1.213,0.352 -0.516,0 -0.802,-0.177 -0.857,-0.528 -0.057,-0.352 -0.008,-0.761 0.15,-1.23 0.146,-0.432 0.295,-0.788 0.45,-1.066 0.156,-0.28 0.368,-0.528 0.635,-0.745 0.27,-0.215 0.617,-0.41 1.046,-0.58 0.426,-0.172 0.972,-0.355 1.637,-0.555 l -1.161,3.459 z"
               id="path512" />
            <path
               style="fill:#004ea2"
               inkscape:connector-curvature="0"
               d="m 791.227,1692.752 c 0.474,0 0.934,0.011 1.38,0.025 0.447,0.02 0.9,0.046 1.362,0.082 0.028,-0.146 0.521,-1.798 0.708,-2.108 -0.425,0.036 -0.869,0.064 -1.339,0.082 -0.47,0.017 -0.961,0.025 -1.477,0.025 0.097,-0.285 0.233,-0.682 0.413,-1.184 0.18,-0.502 0.378,-1.041 0.603,-1.615 0.224,-0.575 0.459,-1.148 0.702,-1.724 0.243,-0.574 0.478,-1.066 0.696,-1.479 l -0.445,-0.324 c -1.181,0.575 -2.369,1.098 -3.566,1.562 -1.197,0.467 -2.392,0.889 -3.589,1.266 l -1.174,3.498 c -0.351,0 -0.758,-0.01 -1.225,-0.025 -0.468,-0.018 -0.83,-0.046 -1.086,-0.082 -0.006,0.146 -0.643,1.981 -0.707,2.108 0.362,-0.036 0.747,-0.062 1.154,-0.082 0.408,-0.015 0.817,-0.025 1.229,-0.025 l -1.206,3.597 c -0.224,0.666 -0.472,1.342 -0.742,2.027 -0.271,0.684 -0.514,1.351 -0.732,2 -0.478,1.424 -0.434,2.506 0.131,3.245 0.564,0.738 1.742,1.108 3.531,1.108 0.805,0 1.625,-0.068 2.464,-0.204 0.837,-0.134 1.676,-0.319 2.518,-0.554 0.006,-0.145 0.415,-1.486 0.588,-1.758 -0.276,0.09 -0.55,0.168 -0.819,0.23 -0.267,0.062 -0.534,0.095 -0.802,0.095 -1.235,0 -1.669,-0.55 -1.299,-1.648 l 2.729,-8.138 z"
               id="path514" />
            <path
               style="fill:#004ea2"
               inkscape:connector-curvature="0"
               d="m 809.427,1692.888 c -0.449,-0.865 -1.155,-1.506 -2.118,-1.92 -0.964,-0.414 -2.061,-0.623 -3.297,-0.623 -1.42,0 -2.708,0.189 -3.862,0.568 -1.157,0.38 -2.183,0.889 -3.076,1.527 -0.894,0.641 -1.651,1.393 -2.27,2.259 -0.62,0.863 -1.093,1.783 -1.419,2.757 -0.15,0.451 -0.271,0.941 -0.355,1.474 -0.087,0.532 -0.095,1.063 -0.027,1.595 0.069,0.531 0.224,1.05 0.469,1.555 0.24,0.506 0.624,0.946 1.145,1.324 0.521,0.379 1.199,0.676 2.031,0.894 0.833,0.216 1.857,0.323 3.071,0.323 0.926,0 1.899,-0.082 2.923,-0.242 1.021,-0.163 2.001,-0.416 2.939,-0.757 0.167,-0.253 0.316,-0.474 0.452,-0.663 0.137,-0.189 0.275,-0.373 0.419,-0.555 0.142,-0.18 0.296,-0.359 0.458,-0.54 0.163,-0.181 0.357,-0.388 0.581,-0.621 l -0.528,-0.731 c -0.326,0.236 -0.689,0.447 -1.093,0.635 -0.402,0.189 -0.812,0.352 -1.229,0.487 -0.414,0.134 -0.833,0.244 -1.251,0.324 -0.42,0.081 -0.793,0.122 -1.121,0.122 -0.681,0 -1.227,-0.116 -1.644,-0.352 -0.414,-0.234 -0.714,-0.55 -0.9,-0.947 -0.186,-0.395 -0.269,-0.842 -0.246,-1.337 0.021,-0.495 0.124,-1.015 0.307,-1.556 2.239,-0.053 4.472,-0.08 6.693,-0.08 0.454,0 0.914,0.01 1.383,0.027 0.467,0.018 0.902,0.035 1.309,0.053 0.23,-0.81 0.42,-1.652 0.569,-2.527 0.149,-0.874 0.046,-1.698 -0.313,-2.473 z m -5.09,1.783 c -0.141,0.451 -0.284,0.892 -0.429,1.325 h -3.488 c 0.139,-0.414 0.294,-0.847 0.466,-1.297 0.171,-0.451 0.375,-0.861 0.614,-1.23 0.234,-0.369 0.519,-0.676 0.848,-0.92 0.328,-0.242 0.72,-0.364 1.173,-0.364 0.432,0 0.721,0.116 0.87,0.352 0.147,0.234 0.211,0.535 0.188,0.904 -0.021,0.371 -0.101,0.781 -0.242,1.23 z"
               id="path516" />
            <path
               style="fill:#004ea2"
               inkscape:connector-curvature="0"
               d="m 825.469,1690.345 c -0.557,0 -1.064,0.047 -1.527,0.137 -0.463,0.09 -0.921,0.229 -1.376,0.418 -0.454,0.19 -0.906,0.419 -1.356,0.691 -0.451,0.27 -0.923,0.584 -1.414,0.945 0.338,-0.703 0.636,-1.406 0.893,-2.109 -1.105,0.162 -5.994,0.072 -6.483,0 -0.182,0.848 -0.379,1.648 -0.593,2.406 -0.211,0.757 -0.481,1.622 -0.808,2.596 l -0.717,2.137 c -0.399,1.188 -0.816,2.369 -1.251,3.541 -0.434,1.172 -0.905,2.334 -1.416,3.486 0.575,-0.055 6.208,-0.035 6.793,0 0.125,-0.558 0.284,-1.171 0.477,-1.838 0.193,-0.666 0.466,-1.523 0.816,-2.568 l 0.816,-2.434 c 0.169,-0.504 0.347,-1 0.529,-1.486 0.184,-0.488 0.395,-0.92 0.637,-1.298 0.24,-0.378 0.516,-0.685 0.832,-0.919 0.315,-0.234 0.698,-0.352 1.152,-0.352 0.412,0 0.702,0.086 0.871,0.258 0.167,0.171 0.263,0.399 0.278,0.688 0.017,0.288 -0.021,0.604 -0.117,0.946 -0.096,0.343 -0.201,0.692 -0.322,1.055 -0.454,1.352 -0.919,2.675 -1.396,3.975 -0.477,1.297 -0.983,2.621 -1.519,3.973 0.56,-0.07 6.199,-0.07 6.729,0 0.153,-0.576 0.347,-1.234 0.587,-1.974 0.237,-0.738 0.468,-1.441 0.691,-2.108 l 0.39,-1.162 0.345,-1.027 c 0.128,-0.379 0.262,-0.766 0.404,-1.162 0.145,-0.396 0.28,-0.785 0.407,-1.163 l 0.346,-1.027 c 0.505,-1.515 0.448,-2.662 -0.173,-3.447 -0.62,-0.786 -1.796,-1.178 -3.525,-1.178 z"
               id="path518" />
            <path
               style="fill:#004ea2"
               inkscape:connector-curvature="0"
               d="m 841.011,1690.858 c 0.097,-0.285 0.233,-0.682 0.412,-1.184 0.18,-0.502 0.38,-1.041 0.604,-1.615 0.223,-0.575 0.457,-1.148 0.702,-1.724 0.241,-0.574 0.476,-1.066 0.696,-1.479 l -0.447,-0.324 c -1.18,0.575 -2.369,1.098 -3.564,1.562 -1.196,0.467 -2.393,0.889 -3.59,1.266 l -1.173,3.498 c -0.35,0 -0.758,-0.01 -1.227,-0.025 -0.467,-0.018 -0.828,-0.046 -1.083,-0.082 -0.009,0.146 -0.645,1.981 -0.708,2.108 0.362,-0.036 0.746,-0.062 1.154,-0.082 0.406,-0.015 0.815,-0.025 1.228,-0.025 l -1.207,3.597 c -0.222,0.666 -0.471,1.342 -0.74,2.027 -0.271,0.684 -0.517,1.351 -0.732,2 -0.479,1.424 -0.435,2.506 0.13,3.245 0.564,0.738 1.744,1.108 3.533,1.108 0.804,0 1.624,-0.068 2.461,-0.204 0.839,-0.134 1.676,-0.319 2.518,-0.554 0.007,-0.145 0.416,-1.486 0.59,-1.758 -0.278,0.09 -0.552,0.168 -0.818,0.23 -0.269,0.062 -0.537,0.095 -0.802,0.095 -1.237,0 -1.672,-0.55 -1.302,-1.648 l 2.729,-8.139 c 0.473,0 0.934,0.011 1.381,0.025 0.445,0.02 0.9,0.046 1.361,0.082 0.031,-0.146 0.521,-1.798 0.709,-2.108 -0.426,0.036 -0.871,0.064 -1.341,0.082 -0.467,0.018 -0.96,0.026 -1.474,0.026 z"
               id="path520" />
            <path
               style="fill:#738792"
               inkscape:connector-curvature="0"
               d="m 869.03,1693.022 c -0.39,0.055 -0.94,0.1 -1.651,0.135 -0.713,0.037 -1.447,0.064 -2.203,0.082 -0.758,0.018 -1.459,0.031 -2.099,0.041 -0.642,0.01 -1.086,0.012 -1.333,0.012 0.308,-0.92 0.613,-1.812 0.914,-2.675 0.299,-0.866 0.624,-1.758 0.976,-2.679 0.287,0 0.709,0.01 1.26,0.016 0.554,0.01 1.165,0.027 1.835,0.053 0.671,0.027 1.372,0.054 2.104,0.082 0.732,0.027 1.432,0.059 2.099,0.094 0.042,-0.251 0.883,-2.693 0.989,-2.945 -1.144,0.089 -2.336,0.152 -3.584,0.188 -1.246,0.037 -2.427,0.055 -3.538,0.055 -1.11,0 -2.304,-0.018 -3.579,-0.055 -1.275,-0.035 -2.574,-0.099 -3.904,-0.188 -0.337,1.314 -0.695,2.627 -1.071,3.932 -0.376,1.308 -0.786,2.619 -1.228,3.935 -0.654,1.946 -1.316,3.862 -1.988,5.745 -0.673,1.882 -1.398,3.799 -2.174,5.744 0.62,-0.07 6.237,-0.16 7.439,0 0.114,-0.521 0.285,-1.184 0.513,-1.986 0.227,-0.801 0.47,-1.631 0.727,-2.487 0.256,-0.856 0.516,-1.69 0.776,-2.499 0.263,-0.812 0.483,-1.487 0.664,-2.029 0.618,0 1.238,0.01 1.858,0.027 0.623,0.018 1.237,0.044 1.841,0.08 l 3.385,0.218 c 0.025,-0.2 0.862,-2.696 0.972,-2.896 z"
               id="path522" />
            <path
               style="fill:#738792"
               inkscape:connector-curvature="0"
               d="m 872.801,1690.427 c -0.129,0.505 -0.239,0.941 -0.331,1.311 -0.095,0.371 -0.208,0.779 -0.336,1.23 -0.133,0.451 -0.297,0.992 -0.497,1.623 -0.203,0.631 -0.477,1.461 -0.82,2.487 -0.351,1.045 -0.645,1.906 -0.881,2.583 -0.239,0.674 -0.447,1.268 -0.63,1.783 -0.184,0.513 -0.373,1.005 -0.572,1.473 -0.198,0.469 -0.436,1.027 -0.716,1.676 0.553,-0.055 6.312,-0.07 6.885,0 0.106,-0.378 0.222,-0.797 0.346,-1.257 0.122,-0.46 0.26,-0.933 0.414,-1.419 0.15,-0.487 0.306,-0.973 0.457,-1.461 0.153,-0.485 0.299,-0.936 0.438,-1.352 l 0.491,-1.459 c 0.289,-0.865 0.657,-1.915 1.102,-3.149 0.445,-1.234 0.978,-2.591 1.598,-4.069 -1.188,0.162 -6.402,0.091 -6.948,0 z"
               id="path524" />
            <path
               style="fill:#738792"
               inkscape:connector-curvature="0"
               d="m 895.995,1692.888 c -0.452,-0.865 -1.157,-1.506 -2.12,-1.92 -0.961,-0.414 -2.06,-0.623 -3.295,-0.623 -1.421,0 -2.709,0.189 -3.864,0.568 -1.156,0.38 -2.182,0.889 -3.075,1.527 -0.895,0.641 -1.649,1.393 -2.271,2.259 -0.619,0.863 -1.092,1.783 -1.418,2.757 -0.15,0.451 -0.27,0.941 -0.356,1.474 -0.085,0.532 -0.094,1.063 -0.024,1.595 0.068,0.531 0.223,1.05 0.465,1.555 0.242,0.506 0.625,0.946 1.146,1.324 0.52,0.379 1.198,0.676 2.031,0.894 0.834,0.216 1.856,0.323 3.07,0.323 0.928,0 1.902,-0.082 2.922,-0.242 1.022,-0.163 2.003,-0.416 2.941,-0.757 0.166,-0.253 0.316,-0.474 0.453,-0.663 0.134,-0.189 0.275,-0.373 0.417,-0.555 0.144,-0.18 0.297,-0.359 0.46,-0.54 0.164,-0.181 0.357,-0.388 0.579,-0.621 l -0.527,-0.731 c -0.325,0.236 -0.688,0.447 -1.092,0.635 -0.403,0.189 -0.813,0.352 -1.229,0.487 -0.415,0.134 -0.833,0.244 -1.251,0.324 -0.417,0.081 -0.793,0.122 -1.121,0.122 -0.68,0 -1.228,-0.116 -1.642,-0.352 -0.416,-0.234 -0.718,-0.55 -0.903,-0.947 -0.187,-0.395 -0.269,-0.842 -0.246,-1.337 0.023,-0.495 0.124,-1.015 0.307,-1.556 2.24,-0.053 4.473,-0.08 6.696,-0.08 0.453,0 0.912,0.01 1.38,0.027 0.467,0.018 0.902,0.035 1.309,0.053 0.231,-0.81 0.421,-1.652 0.571,-2.527 0.148,-0.874 0.044,-1.698 -0.313,-2.473 z m -5.091,1.783 c -0.143,0.451 -0.283,0.892 -0.43,1.325 h -3.487 c 0.138,-0.414 0.295,-0.847 0.465,-1.297 0.171,-0.451 0.377,-0.861 0.614,-1.23 0.235,-0.369 0.52,-0.676 0.849,-0.92 0.329,-0.242 0.718,-0.364 1.173,-0.364 0.432,0 0.72,0.116 0.869,0.352 0.148,0.234 0.21,0.535 0.189,0.904 -0.02,0.371 -0.102,0.781 -0.242,1.23 z"
               id="path526" />
            <path
               style="fill:#738792"
               inkscape:connector-curvature="0"
               d="m 909.828,1684.048 c -0.607,0.089 -6.371,0.089 -6.917,0 -0.216,0.829 -0.4,1.531 -0.551,2.107 -0.154,0.578 -0.305,1.104 -0.454,1.582 -0.15,0.477 -0.293,0.933 -0.426,1.364 -0.138,0.434 -0.291,0.911 -0.468,1.433 l -2.874,8.57 c -0.309,0.92 -0.651,1.849 -1.026,2.785 -0.376,0.937 -0.741,1.838 -1.093,2.703 0.595,-0.055 6.354,-0.07 6.885,0 0.104,-0.378 0.239,-0.838 0.4,-1.378 0.161,-0.54 0.334,-1.116 0.519,-1.731 0.186,-0.611 0.376,-1.23 0.574,-1.852 0.199,-0.621 0.392,-1.211 0.579,-1.77 l 2.26,-6.732 c 0.417,-1.244 0.852,-2.465 1.305,-3.664 0.454,-1.198 0.882,-2.337 1.287,-3.417 z"
               id="path528" />
            <path
               style="fill:#738792"
               inkscape:connector-curvature="0"
               d="m 935.442,1686.479 -4.132,-2.432 h -8.192 l 0,0 h -0.015 c -0.375,1.297 -0.752,2.576 -1.135,3.838 -0.382,1.261 -0.789,2.541 -1.226,3.84 -0.158,-0.146 -0.328,-0.297 -0.509,-0.461 -0.184,-0.162 -0.41,-0.311 -0.685,-0.445 -0.274,-0.136 -0.605,-0.248 -0.998,-0.338 -0.394,-0.09 -0.866,-0.137 -1.422,-0.137 -0.617,0 -1.355,0.119 -2.216,0.354 -0.862,0.233 -1.739,0.64 -2.632,1.216 -0.894,0.577 -1.735,1.337 -2.526,2.284 -0.791,0.947 -1.427,2.141 -1.911,3.582 -0.272,0.811 -0.419,1.633 -0.438,2.46 -0.022,0.831 0.133,1.577 0.466,2.245 0.333,0.666 0.868,1.198 1.61,1.594 0.741,0.396 1.729,0.596 2.966,0.596 0.513,0 0.979,-0.023 1.397,-0.068 0.414,-0.044 0.825,-0.135 1.23,-0.271 0.407,-0.135 0.801,-0.315 1.186,-0.54 0.384,-0.225 0.799,-0.51 1.243,-0.852 -0.188,0.559 -0.404,1.108 -0.647,1.648 0.562,-0.07 5.728,-0.07 6.237,0 0.162,-0.665 0.336,-1.338 0.521,-2.014 0.187,-0.676 0.399,-1.404 0.644,-2.189 0.24,-0.784 0.518,-1.649 0.823,-2.595 0.308,-0.948 0.662,-2.017 1.06,-3.204 0.562,-1.677 1.162,-3.434 1.801,-5.271 0.335,-0.971 0.682,-1.915 1.039,-2.84 h 6.461 z m -16.488,10.951 c -0.237,0.702 -0.478,1.36 -0.724,1.974 -0.248,0.612 -0.518,1.14 -0.81,1.582 -0.292,0.44 -0.616,0.788 -0.967,1.039 -0.352,0.254 -0.766,0.379 -1.238,0.379 -0.433,0 -0.742,-0.121 -0.928,-0.365 -0.187,-0.242 -0.284,-0.576 -0.297,-1 -0.013,-0.424 0.049,-0.914 0.185,-1.474 0.137,-0.558 0.311,-1.153 0.521,-1.784 0.236,-0.702 0.482,-1.355 0.736,-1.961 0.253,-0.603 0.534,-1.129 0.839,-1.58 0.306,-0.451 0.642,-0.808 1.006,-1.068 0.366,-0.262 0.775,-0.394 1.229,-0.394 0.74,0 1.14,0.358 1.199,1.069 0.061,0.712 -0.19,1.905 -0.751,3.583 z"
               id="path530" />
            <path
               style="fill:#004ea2"
               inkscape:connector-curvature="0"
               d="m 875.451,1687.286 c 0.201,0.25 0.467,0.449 0.792,0.596 0.325,0.147 0.706,0.223 1.142,0.223 0.414,0 0.834,-0.076 1.26,-0.223 0.425,-0.146 0.82,-0.341 1.188,-0.583 0.367,-0.243 0.693,-0.533 0.975,-0.87 0.279,-0.336 0.48,-0.687 0.604,-1.051 0.121,-0.363 0.155,-0.713 0.101,-1.052 -0.056,-0.337 -0.186,-0.626 -0.39,-0.868 -0.206,-0.242 -0.471,-0.438 -0.797,-0.585 -0.327,-0.147 -0.697,-0.22 -1.112,-0.22 -0.435,0 -0.864,0.072 -1.29,0.22 -0.425,0.147 -0.821,0.346 -1.192,0.597 -0.371,0.25 -0.694,0.541 -0.973,0.869 -0.279,0.33 -0.479,0.676 -0.6,1.039 -0.123,0.364 -0.155,0.71 -0.098,1.038 0.057,0.328 0.188,0.618 0.39,0.87 z"
               id="path532" />
          </g>
        </g>
      </g>
    </g>
  </g>
</svg>
